SplineFontDB: 3.0
FontName: LindenHill
FullName: Linden Hill
FamilyName: Linden Hill
Weight: Regular
Copyright: Copyright (c) 2009 Barry Schwartz\n\nPermission is hereby granted, free of charge, to any person\nobtaining a copy of this software and associated documentation\nfiles (the "Software"), to deal in the Software without\nrestriction, including without limitation the rights to use,\ncopy, modify, merge, publish, distribute, sublicense, and/or sell\ncopies of the Software, and to permit persons to whom the\nSoftware is furnished to do so, subject to the following\nconditions:\n\nThe above copyright notice and this permission notice shall be\nincluded in all copies or substantial portions of the Software.\n\nTHE SOFTWARE IS PROVIDED "AS IS", WITHOUT WARRANTY OF ANY KIND,\nEXPRESS OR IMPLIED, INCLUDING BUT NOT LIMITED TO THE WARRANTIES\nOF MERCHANTABILITY, FITNESS FOR A PARTICULAR PURPOSE AND\nNONINFRINGEMENT. IN NO EVENT SHALL THE AUTHORS OR COPYRIGHT\nHOLDERS BE LIABLE FOR ANY CLAIM, DAMAGES OR OTHER LIABILITY,\nWHETHER IN AN ACTION OF CONTRACT, TORT OR OTHERWISE, ARISING\nFROM, OUT OF OR IN CONNECTION WITH THE SOFTWARE OR THE USE OR\nOTHER DEALINGS IN THE SOFTWARE.
UComments: "Scaling: Cut the 12-point to 640 pixels high and scale it to 120%." 
Version: 001.000
ItalicAngle: 0
UnderlinePosition: -204
UnderlineWidth: 102
Ascent: 1504
Descent: 544
LayerCount: 3
Layer: 0 0 "Back"  1
Layer: 1 0 "Fore"  0
Layer: 2 0 "backup"  1
NeedsXUIDChange: 1
XUID: [1021 658 797806517 427014]
FSType: 0
OS2Version: 0
OS2_WeightWidthSlopeOnly: 0
OS2_UseTypoMetrics: 1
CreationTime: 1249677682
ModificationTime: 1250238020
OS2TypoAscent: 0
OS2TypoAOffset: 1
OS2TypoDescent: 0
OS2TypoDOffset: 1
OS2TypoLinegap: 184
OS2WinAscent: 0
OS2WinAOffset: 1
OS2WinDescent: 0
OS2WinDOffset: 1
HheadAscent: 0
HheadAOffset: 1
HheadDescent: 0
HheadDOffset: 1
OS2Vendor: 'PfEd'

StartChar: i
Encoding: 105 105 0
Width: 522
VWidth: 0
Flags: MW
HStem: 0 65<43 179.381 326.47 487> 812 20G<268.5 325> 1125 178<230.958 354.445>
VStem: 181 144<68.8509 723.992> 205 174<1147.86 1276.19>
LayerCount: 3
Fore
SplineSet
205 1216 m 0
 205 1244 273 1303 294 1303 c 0
 331 1303 379 1233 379 1210 c 0
 379 1178 316 1125 289 1125 c 0
 266 1125 205 1182 205 1216 c 0
35 770 m 1
 125 784 212 802 325 832 c 1
 325 120 l 2
 325 54 345 71 487 65 c 1
 487 0 l 1
 43 0 l 1
 43 65 l 1
 136 70 181 58 181 113 c 2
 181 659 l 2
 181 713 173 724 150 724 c 0
 140 724 102 720 38 708 c 1
 35 770 l 1
EndSplineSet
Layer: 2
SplineSet
219 1216 m 4
 219 1244 287 1303 308 1303 c 4
 345 1303 393 1233 393 1210 c 4
 393 1178 330 1125 303 1125 c 4
 280 1125 219 1182 219 1216 c 4
314.770507812 1370.7734375 m 0
 351.693359375 1370.7734375 399.693359375 1300.62011719 399.693359375 1277.54296875 c 0
 399.693359375 1245.23535156 336.923828125 1192.61914062 310.155273438 1192.61914062 c 0
 287.078125 1192.61914062 226.154296875 1248.92675781 226.154296875 1283.08105469 c 0
 226.154296875 1310.7734375 293.5390625 1370.7734375 314.770507812 1370.7734375 c 0
EndSplineSet
EndChar

StartChar: j
Encoding: 106 106 1
Width: 501
VWidth: 0
Flags: MW
HStem: -534 92<-4 152.898> 807 20G<265.5 332> 1125 178<237.958 361.445>
VStem: 188 144<-368.625 719.978> 212 174<1147.86 1276.19>
LayerCount: 3
Fore
SplineSet
-129 -454 m 0
 -129 -412 -64 -354 -18 -354 c 0
 13 -354 61 -442 93 -442 c 0
 162 -442 188 -339 188 -164 c 2
 188 636 l 2
 188 690 186 720 142 720 c 0
 128 720 99 713 52 702 c 1
 41 764 l 1
 131 779 199 796 332 827 c 1
 332 -99 l 2
 332 -326 285 -403 216 -454 c 0
 215 -455 118 -534 31 -534 c 0
 -39 -534 -129 -484 -129 -454 c 0
212 1216 m 0
 212 1244 280 1303 301 1303 c 0
 338 1303 386 1233 386 1210 c 0
 386 1178 323 1125 296 1125 c 0
 273 1125 212 1182 212 1216 c 0
EndSplineSet
Layer: 2
SplineSet
304.616210938 1296.92773438 m 4
 326.770507812 1296.92773438 378.462890625 1236.00390625 378.462890625 1208.31152344 c 4
 378.462890625 1172.31152344 319.385742188 1125.234375 299.078125 1125.234375 c 4
 279.693359375 1125.234375 216.923828125 1174.15820312 216.923828125 1212.92675781 c 4
 216.923828125 1239.69628906 288.000976562 1296.92773438 304.616210938 1296.92773438 c 4
EndSplineSet
EndChar

StartChar: l
Encoding: 108 108 2
Width: 539
VWidth: 0
Flags: MW
HStem: 0 65<55 190.002 339.429 504> 1466 20G<287 337>
VStem: 193 144<69.5728 1389.98>
LayerCount: 3
Fore
SplineSet
35 1368 m 1
 36 1440 l 1
 140 1456 237 1468 337 1486 c 1
 337 120 l 2
 337 60 366 69 504 65 c 1
 504 0 l 1
 55 0 l 1
 55 65 l 1
 153 66 193 59 193 121 c 2
 193 1289 l 2
 193 1367 191 1390 158 1390 c 0
 137 1390 101 1385 35 1368 c 1
EndSplineSet
EndChar

StartChar: .notdef
Encoding: 65536 -1 4
Width: 1024
VWidth: 0
Flags: W
HStem: 0 70<433.688 549.527> 265 63<435.369 542.758> 1338 114<340.261 556.41>
VStem: 106 549<927.689 1113.28> 106 288<99.812 235.399> 106 225<422.587 702.229> 106 173<1178.01 1278.02> 458 460<417.66 609.346> 590 328<99.5259 237.269> 772 146<833.282 1115.76>
LayerCount: 3
Fore
SplineSet
106 1452 m 9xe240
 918 1452 l 25
 918 0 l 25
 106 0 l 17
 106 1452 l 9xe240
490 70 m 1
 540 72 590 152 590 167 c 0
 589 199 532 265 494 265 c 0
 465 265 394 209 394 168 c 0xe880
 394 140 453 72 490 70 c 1
314 1178 m 0
 373 1178 398 1180 427 1180 c 0
 544 1180 655 1100 655 1039 c 0xf0
 655 861 331 786 331 571 c 0
 331 419 454 328 507 328 c 0
 528 328 543 338 543 361 c 0
 543 402 458 424 458 519 c 0xe5
 458 613 595 675 719 822 c 0
 760 871 772 908 772 970 c 0
 772 1160 535 1338 452 1338 c 0
 368 1338 279 1248 279 1211 c 0xe240
 279 1195 286 1178 314 1178 c 0
EndSplineSet
EndChar

StartChar: k
Encoding: 107 107 5
Width: 966
VWidth: 0
Flags: MW
HStem: 0 65<41 157.366 298.419 459 798.987 930> 747 55<585 689.981 795.465 913> 1465 20G<245 302>
VStem: 158 144<67.0248 338 410 1384.98>
LayerCount: 3
Fore
SplineSet
35 1431 m 1
 109 1445 188 1460 302 1485 c 1
 302 410 l 1
 675 714 l 2
 686 723 690 729 690 734 c 0
 690 746 664 748 647 748 c 0
 630 748 609 747 585 747 c 1
 585 802 l 1
 915 802 l 1
 913 747 l 1
 852 746 835 753 771 702 c 2
 480 471 l 1
 785 114 l 2
 824 69 816 65 877 65 c 2
 931 65 l 1
 930 0 l 1
 688 0 l 1
 369 393 l 1
 297 338 l 1
 297 116 l 2
 297 59 316 67 459 65 c 1
 461 0 l 1
 41 0 l 1
 40 65 l 1
 143 66 158 59 158 111 c 2
 158 1289 l 2
 158 1359 156 1385 127 1385 c 0
 118 1385 77 1376 39 1366 c 1
 35 1431 l 1
EndSplineSet
Layer: 2
SplineSet
297 338 m 1
 297 116 l 2
 297 59 316 67 459 65 c 1
 461 0 l 1
 41 0 l 1
 40 65 l 1
 143 66 158 59 158 111 c 2
 158 1289 l 2
 158 1359 156 1385 127 1385 c 0
 118 1385 77 1376 39 1366 c 1
 35 1431 l 1
 109 1445 188 1460 302 1485 c 1
 302 410 l 1
 675 714 l 2
 686 723 689 729 689 735 c 0
 689 747 673 749 647 749 c 0
 630 749 609 748 585 748 c 1
 585 803 l 1
 915 803 l 1
 913 748 l 1
 852 747 835 753 771 702 c 2
 480 471 l 1
 785 114 l 2
 824 69 816 65 877 65 c 2
 931 65 l 1
 930 0 l 1
 688 0 l 1
 369 393 l 1
 297 338 l 1
EndSplineSet
EndChar

StartChar: n
Encoding: 110 110 6
Width: 950
VWidth: 0
Flags: MW
HStem: 0 65<37 146.264 294.638 439 532 644.424 794.801 914> 695 114<421.132 621.925>
VStem: 148 144<68.5586 649.199 678 725.828> 647 144<67.8848 668.381>
LayerCount: 3
Fore
SplineSet
35 65 m 1
 140 70 148 55 148 135 c 2
 148 622 l 2
 148 705 145 726 117 726 c 0
 101 726 93 722 38 709 c 1
 38 773 l 1
 292 823 l 1
 288 774 288 754 287 678 c 1
 319 693 432 809 595 809 c 0
 788 809 791 642 791 480 c 2
 791 127 l 2
 791 65 819 65 915 65 c 1
 914 0 l 1
 532 0 l 1
 530 65 l 1
 620 68 647 54 647 127 c 2
 647 539 l 2
 647 656 607 695 514 695 c 0
 416 695 292 628 292 628 c 1
 292 135 l 2
 292 51 306 73 442 65 c 1
 439 0 l 1
 37 0 l 1
 35 65 l 1
EndSplineSet
EndChar

StartChar: a
Encoding: 97 97 7
Width: 778
VWidth: 0
Flags: W
HStem: -22 110<211.76 381.371> 391 55<330.523 462> 714 98<212.077 441.022>
VStem: 50 145<107.428 271.573> 68 111<513.552 650.27> 462 144<122.777 391 446 691.531>
LayerCount: 3
Fore
SplineSet
50 133 m 0xf4
 50 300 230 446 462 446 c 1
 462 570 l 2
 462 649 449 714 325 714 c 0
 181 714 160 652 160 652 c 1
 168 615 179 584 179 562 c 0
 179 530 131 508 114 508 c 0
 73 508 68 558 68 582 c 0xec
 68 627 130 812 425 812 c 0
 472 812 606 797 606 647 c 2
 606 264 l 2
 606 175 620 111 738 78 c 0
 752 74 758 67 758 61 c 0
 758 55 752 46 738 38 c 0
 690 8 622 -32 616 -35 c 1
 544 17 523 56 479 109 c 1
 425 37 330 -22 240 -22 c 0
 154 -22 50 23 50 133 c 0xf4
195 193 m 0xf4
 195 137 226 88 316 88 c 0
 436 88 462 156 462 201 c 2
 462 391 l 1
 292 390 195 283 195 193 c 0xf4
EndSplineSet
Layer: 2
SplineSet
72 590.771484375 m 4
 72 636.001953125 142.154296875 817.848632812 437.540039062 817.848632812 c 4
 484.6171875 817.848632812 614.771484375 796.618164062 614.771484375 653.541015625 c 4
 614.771484375 642.463867188 600.001953125 252.923828125 600.001953125 224.30859375 c 4
 600.001953125 104.307617188 751.38671875 102.461914062 751.38671875 60.9228515625 c 4
 751.38671875 39.6923828125 628.6171875 -21.23046875 620.309570312 -25.8466796875 c 5
 620.309570312 -25.8466796875 523.38671875 37.8466796875 485.540039062 144 c 5
 432.000976562 37.8466796875 324.923828125 -12 230.76953125 -12 c 4
 134.76953125 -12 52.615234375 40.615234375 52.615234375 140.30859375 c 4
 52.615234375 216.000976562 100.615234375 302.770507812 184.616210938 364.616210938 c 4
 300.923828125 450.462890625 470.770507812 452.309570312 470.770507812 452.309570312 c 5
 470.770507812 579.694335938 l 6
 470.770507812 646.15625 452.309570312 723.694335938 328.616210938 723.694335938 c 4
 184.616210938 723.694335938 164.30859375 660.924804688 164.30859375 660.924804688 c 5
 173.07421875 624.107421875 182.76953125 593.2421875 182.76953125 571.38671875 c 4
 182.76953125 539.079101562 134.76953125 516.924804688 118.154296875 516.924804688 c 4
 77.5390625 516.924804688 72 566.771484375 72 590.771484375 c 4
319.385742188 93.2314453125 m 4
 380.30859375 93.2314453125 470.770507812 114.461914062 470.770507812 268.616210938 c 6
 470.770507812 413.540039062 l 5
 300.000976562 389.540039062 202.154296875 313.84765625 202.154296875 209.5390625 c 4
 202.154296875 147.692382812 242.770507812 93.2314453125 319.385742188 93.2314453125 c 4
EndSplineSet
EndChar

StartChar: h
Encoding: 104 104 8
Width: 950
VWidth: 0
Flags: MW
HStem: 0 65<36 150.377 297.434 437 522 648.427 796.27 915> 695 114<443.704 616.669> 1466 20G<237 296>
VStem: 152 144<68.524 628.855 658 1390.99> 651 144<67.5664 655.289>
LayerCount: 3
Fore
SplineSet
35 65 m 1
 118 67 152 62 152 113 c 2
 152 1330 l 2
 152 1373 150 1391 117 1391 c 0
 99 1391 74 1386 35 1378 c 1
 35 1449 l 1
 98 1455 178 1467 296 1486 c 1
 296 658 l 1
 350 701 467 809 599 809 c 0
 792 809 795 642 795 480 c 2
 795 124 l 2
 795 57 804 67 915 65 c 1
 915 0 l 1
 522 0 l 1
 520 65 l 1
 625 67 651 60 651 122 c 2
 651 539 l 2
 651 660 574 695 512 695 c 0
 408 695 296 595 296 595 c 1
 296 113 l 2
 296 56 335 71 439 65 c 1
 437 0 l 1
 36 0 l 1
 35 65 l 1
EndSplineSet
EndChar

StartChar: f
Encoding: 102 102 9
Width: 582
VWidth: 0
Flags: W
HStem: 0 65<57 182.265 330.749 483> 704 98<59 184 328 534> 1398 85<398.269 596.5>
VStem: 184 144<68.4003 704 802 1271.11>
LayerCount: 3
Fore
SplineSet
35 704 m 1
 59 802 l 1
 185 802 l 1
 185 1023 l 2
 185 1136 190 1320 385 1440 c 0
 434 1470 496 1483 554 1483 c 0
 639 1483 713 1455 713 1408 c 0
 713 1375 648 1276 607 1276 c 0
 572 1276 556 1398 481 1398 c 0
 336 1398 327 1131 327 1074 c 2
 327 802 l 1
 558 802 l 1
 534 704 l 1
 328 704 l 1
 328 128 l 2
 328 57 348 69 485 65 c 1
 483 0 l 1
 57 0 l 1
 55 65 l 1
 157 69 184 54 184 120 c 2
 184 704 l 1
 35 704 l 1
EndSplineSet
Layer: 2
SplineSet
35 704 m 5
 59 802 l 5
 185 802 l 5
 185 1029 l 6
 185 1056 185 1082 187 1108 c 4
 200 1314 335 1503 555 1503 c 4
 624 1503 723 1482 723 1420 c 4
 723 1396 661 1290 613 1290 c 4
 572 1290 556 1410 481 1410 c 4
 337 1410 327 1151 327 1094 c 6
 327 802 l 5
 558 802 l 5
 534 704 l 5
 328 704 l 5
 328 128 l 6
 328 57 348 69 485 65 c 5
 483 0 l 5
 57 0 l 5
 55 65 l 5
 157 69 184 54 184 120 c 6
 184 704 l 5
 35 704 l 5
EndSplineSet
EndChar

StartChar: e
Encoding: 101 101 10
Width: 826
VWidth: 0
Flags: W
HStem: -26 138<333.588 603.363> 747 71<292.072 464.858>
VStem: 40 153<254.892 528.864 535 596.058>
LayerCount: 3
Fore
SplineSet
40 375 m 0
 40 642 199 818 402 818 c 0
 626 818 741 626 741 555 c 0
 741 532 717 525 709 524 c 2
 194 462 l 1
 193 455 193 445 193 435 c 0
 193 229 323 112 495 112 c 0
 656 112 735 209 769 209 c 0
 779 209 786 202 786 184 c 0
 786 146 635 -26 413 -26 c 0
 125 -26 40 218 40 375 c 0
199 535 m 1
 551 580 l 1
 551 580 495 747 382 747 c 0
 301 747 221 671 199 535 c 1
EndSplineSet
EndChar

StartChar: d
Encoding: 100 100 11
Width: 1033
VWidth: 0
Flags: MW
HStem: -24 116<346.623 571.277> 37 56<911.388 998> 746 63<322.983 570.959> 1478 20G<750 843>
VStem: 35 149<266.492 568.57> 699 144<56.0162 129.669 137.386 658.689 719 1386.99>
LayerCount: 3
Fore
SplineSet
35 378 m 0
 35 624 239 809 436 809 c 0
 592 809 699 719 699 719 c 1
 699 1329 l 2
 699 1373 692 1387 671 1387 c 0
 657 1387 618 1378 536 1359 c 1
 531 1423 l 1
 631 1442 657 1448 843 1498 c 1
 843 143 l 2
 843 78 845 56 869 56 c 0
 890 56 929 74 998 93 c 1
 998 37 l 1
 933 19 878 0 704 -54 c 1
 704 17 706 66 706 96 c 0
 706 112 706 123 704 130 c 1
 701 128 591 -24 399 -24 c 0
 200 -24 35 137 35 378 c 0
184 450 m 0
 184 263 305 92 506 92 c 0
 629 92 699 175 699 175 c 1
 699 614 l 1
 699 614 602 746 435 746 c 0
 295 746 184 622 184 450 c 0
EndSplineSet
EndChar

StartChar: c
Encoding: 99 99 12
Width: 765
VWidth: 0
Flags: W
HStem: -26 123<320.687 623.838> 740 82<279.087 476.288>
VStem: 40 144<237.318 587.798>
LayerCount: 3
Fore
SplineSet
40 372 m 0
 40 593 169 822 416 822 c 0
 609 822 729 716 729 686 c 0
 729 642 620 624 604 624 c 0
 538 624 469 740 379 740 c 0
 223 740 184 535 184 422 c 0
 184 173 358 97 483 97 c 0
 670 97 718 146 748 146 c 0
 761 146 765 134 765 126 c 0
 765 83 596 -26 425 -26 c 0
 117 -26 40 182 40 372 c 0
EndSplineSet
EndChar

StartChar: b
Encoding: 98 98 13
Width: 1029
VWidth: 0
Flags: MW
HStem: -19 74<401.635 705.384> -4 21G<198 218> 706 112<450.528 710.907> 1460 20G<279 330>
VStem: 186 144<110.615 659.166 689 1381.99> 845 149<233.539 563.75>
LayerCount: 3
Fore
SplineSet
35 1423 m 1
 132 1440 228 1459 330 1480 c 1
 330 689 l 1
 360 711 464 818 618 818 c 0
 875 818 994 632 994 435 c 0
 994 214 843 -19 571 -19 c 0
 430 -19 327 43 296 43 c 0
 266 43 233 -4 203 -4 c 0
 193 -4 180 8 180 44 c 0
 180 72 186 155 186 318 c 2
 186 1324 l 2
 186 1370 177 1382 158 1382 c 0
 146 1382 133 1379 40 1359 c 1
 35 1423 l 1
330 200 m 2
 330 101 449 55 549 55 c 0
 662 55 845 100 845 360 c 0
 845 681 620 706 566 706 c 0
 415 706 330 630 330 630 c 1
 330 200 l 2
EndSplineSet
EndChar

StartChar: g
Encoding: 103 103 14
Width: 883
VWidth: 0
Flags: MW
HStem: -539 96<185.116 551.48> 211 63<311.76 466.056> 735 84<283.307 464.673>
VStem: -31 153<-381.687 -185.625> 52 168<359.544 657.98> 54 147<34 165.826> 541 171<351.947 634.722> 710 143<-293.019 -101.6>
LayerCount: 3
Fore
SplineSet
-31 -313 m 0
 -31 -107 252 -42 253 -41 c 1
 253 -41 54 -17 54 85 c 0
 54 192 246 231 246 231 c 1
 246 231 52 288 52 510 c 0
 52 678 210 819 377 819 c 0
 549 819 543 736 676 736 c 0
 776 736 773 774 791 805 c 1
 835 805 l 1
 835 753 l 2
 835 656 830 643 752 643 c 2
 720 643 l 2
 678 643 664 643 664 636 c 0
 664 620 712 592 712 496 c 0
 712 346 578 211 377 211 c 0
 268 211 201 184 201 138 c 0
 201 87 267 87 333 87 c 2
 342 87 l 2
 384 87 431 89 481 89 c 0
 750 89 853 0 853 -142 c 0
 853 -335 632 -539 303 -539 c 0
 149 -539 -31 -469 -31 -313 c 0
122 -277 m 0
 122 -331 142 -443 379 -443 c 0
 577 -443 710 -306 710 -197 c 0
 710 -77 581 -47 453 -47 c 0
 286 -47 122 -162 122 -277 c 0
220 517 m 0
 220 398 294 274 389 274 c 0
 494 274 541 396 541 502 c 0
 541 611 471 735 377 735 c 0
 273 735 220 628 220 517 c 0
EndSplineSet
EndChar

StartChar: r
Encoding: 114 114 15
Width: 701
VWidth: 0
Flags: MW
HStem: 0 65<65 190.65 344.484 555> 641 168<453.407 596.668> 812 20G<205 334>
VStem: 194 144<70.5181 584.87 600 721.988>
LayerCount: 3
Fore
SplineSet
35 764 m 1
 122 781 76 769 334 832 c 1
 334 600 l 1
 340 609 433 809 552 809 c 0
 637 809 666 757 666 757 c 1
 587 556 l 1
 554 568 l 1
 555 575 556 584 556 594 c 0
 556 626 535 641 506 641 c 0
 441 641 338 575 338 495 c 2
 338 150 l 2
 338 51 360 70 555 65 c 1
 555 0 l 1
 65 0 l 1
 65 65 l 1
 188 68 194 60 194 150 c 2
 194 650 l 2
 194 706 191 722 166 722 c 0
 147 722 83 709 40 700 c 1
 35 764 l 1
EndSplineSet
EndChar

StartChar: s
Encoding: 115 115 16
Width: 722
VWidth: 0
Flags: W
HStem: -26 69<216.241 443.165> 738 74<272.61 508.335>
VStem: 113 131<553.942 713.111> 479 151<69.7049 257.81> 556 65<525 690.832 775.013 834>
LayerCount: 3
Fore
SplineSet
50 288 m 1xf0
 114 293 l 1
 135 122 l 1
 135 122 243 43 360 43 c 0
 441 43 479 106 479 160 c 0xf0
 479 339 113 373 113 606 c 0
 113 708 217 812 359 812 c 0
 461 812 516 775 537 775 c 0
 554 775 554 793 555 835 c 1
 622 834 l 1
 621 525 l 1
 556 524 l 1xe8
 553 669 l 1
 553 669 488 738 362 738 c 0
 304 738 244 695 244 640 c 0
 244 562 324 530 403 470 c 0
 518 384 630 335 630 205 c 0
 630 85 542 -26 363 -26 c 0
 268 -26 178 -1 163 -1 c 0
 149 -1 145 -12 145 -26 c 0
 145 -33 146 -40 147 -48 c 1
 86 -51 l 1
 50 288 l 1xf0
EndSplineSet
Layer: 2
SplineSet
630 205 m 0
 630 85 542 -26 363 -26 c 0
 277 -26 142 4 142 4 c 1
 147 -48 l 1
 86 -51 l 1
 50 288 l 1
 114 293 l 1
 135 122 l 1
 135 122 243 43 360 43 c 0
 441 43 479 106 479 160 c 0
 479 339 113 373 113 606 c 0
 113 708 217 812 359 812 c 0
 449 812 556 764 556 764 c 1
 555 835 l 1
 622 834 l 1
 621 525 l 1
 556 524 l 1
 553 669 l 1
 553 669 488 738 362 738 c 0
 304 738 244 695 244 640 c 0
 244 562 324 530 403 470 c 0
 518 384 630 335 630 205 c 0
EndSplineSet
EndChar

StartChar: o
Encoding: 111 111 17
Width: 915
VWidth: 0
Flags: W
HStem: -30 80<362.461 596.649> 751 71<315.068 548.802>
VStem: 40 163<237.918 604.18> 703 172<186.258 590.14>
LayerCount: 3
Fore
SplineSet
40 400 m 0
 40 612 164 822 444 822 c 0
 789 822 875 557 875 377 c 0
 875 147 711 -30 449 -30 c 0
 172 -30 40 193 40 400 c 0
203 449 m 0
 203 260 307 50 475 50 c 0
 643 50 703 213 703 382 c 0
 703 629 573 751 426 751 c 0
 307 751 203 649 203 449 c 0
EndSplineSet
EndChar

StartChar: w
Encoding: 119 119 18
Width: 1616
VWidth: 0
Flags: W
HStem: -36 22G<487 539.972 1055 1109.63> 737 65<35 165.456 339.087 462 586 745.482 916.021 1024 1216 1359.98 1463.89 1579>
LayerCount: 3
Fore
SplineSet
35 737 m 1
 35 802 l 1
 465 802 l 1
 462 737 l 1
 402 737 l 2
 369 737 339 734 339 703 c 0
 339 684 350 660 360 636 c 2
 550 192 l 1
 767 666 l 1
 740 730 716 737 661 737 c 2
 586 737 l 1
 582 802 l 1
 1024 802 l 1
 1024 737 l 1
 945 737 916 734 916 706 c 0
 916 693 923 675 934 648 c 2
 1124 194 l 1
 1343 657 l 2
 1353 679 1360 696 1360 708 c 0
 1360 730 1337 737 1270 737 c 2
 1216 737 l 1
 1216 802 l 1
 1579 802 l 1
 1581 737 l 1
 1514 735 1472 737 1439 669 c 2
 1100 -35 l 1
 1055 -33 l 1
 806 577 l 1
 531 -36 l 1
 487 -35 l 1
 202 626 l 2
 156 733 168 736 35 737 c 1
EndSplineSet
EndChar

StartChar: u
Encoding: 117 117 19
Width: 949
VWidth: 0
Flags: MW
HStem: -30 127<330.857 534.63> 23 65<822.898 914> 803 20G<235 286 728 784>
VStem: 142 144<140.511 737.993> 640 144<134.172 735.994>
LayerCount: 3
Fore
SplineSet
35 732 m 1
 35 792 l 1
 101 798 184 805 286 823 c 1
 286 312 l 2
 286 192 303 97 457 97 c 0
 594 97 640 175 640 175 c 1
 640 673 l 2
 640 728 623 736 597 736 c 0
 569 736 510 728 507 725 c 1
 502 789 l 1
 592 796 672 805 784 823 c 1
 784 227 l 2
 784 75 791 66 822 66 c 0
 841 66 870 76 914 88 c 1
 914 23 l 1
 824 4 749 -18 659 -42 c 1
 656 5 654 52 646 103 c 1
 646 103 526 -30 386 -30 c 0
 181 -30 142 126 142 282 c 2
 142 687 l 2
 142 729 130 738 102 738 c 0
 85 738 64 735 35 732 c 1
EndSplineSet
EndChar

StartChar: t
Encoding: 116 116 20
Width: 638
VWidth: 0
Flags: W
HStem: -23 115<328.838 515.984> 690 98<302 566>
VStem: 158 144<121.081 690>
LayerCount: 3
Fore
SplineSet
35 706 m 0
 35 720 104 790 151 844 c 0
 211 912 277 1006 290 1006 c 0
 299 1006 302 1000 302 992 c 2
 302 788 l 1
 578 788 l 1
 566 690 l 1
 302 690 l 1
 302 214 l 2
 302 120 373 92 439 92 c 0
 520 92 578 131 588 131 c 0
 601 131 603 118 603 111 c 0
 603 55 464 -23 358 -23 c 0
 212 -23 158 76 158 196 c 2
 158 690 l 1
 59 690 l 2
 40 690 35 693 35 706 c 0
EndSplineSet
EndChar

StartChar: y
Encoding: 121 121 21
Width: 971
VWidth: 0
Flags: W
HStem: -531 179<29.5831 208.538> 737 65<43 149.01 321.024 427 596 714.969 806.736 931>
LayerCount: 3
Fore
SplineSet
19 -439 m 0
 19 -377 54 -352 98 -352 c 0
 108 -352 139 -356 156 -356 c 0
 197 -356 257 -285 382 -43 c 2
 444 76 l 1
 187 626 l 2
 137 732 150 737 43 737 c 1
 40 802 l 1
 430 802 l 1
 427 737 l 1
 354 734 321 742 321 709 c 0
 321 690 334 661 345 636 c 2
 520 245 l 1
 649 536 l 2
 687 621 715 688 715 708 c 0
 715 740 673 735 596 737 c 1
 596 802 l 1
 931 802 l 1
 931 737 l 1
 882 737 l 2
 811 737 815 726 771 629 c 2
 459 -59 l 2
 248 -524 173 -531 102 -531 c 0
 50 -531 19 -490 19 -439 c 0
EndSplineSet
EndChar

StartChar: quoteright
Encoding: 8217 8217 22
Width: 497
VWidth: 0
Flags: W
HStem: 958 434<166 253>
VStem: 268 122<1086.66 1241.22>
LayerCount: 3
Fore
SplineSet
142 977 m 0
 142 1027 268 1034 268 1161 c 0
 268 1263 164 1244 164 1277 c 0
 164 1282 167 1288 172 1296 c 2
 222 1368 l 2
 226 1374 241 1392 253 1392 c 0
 264 1392 282 1383 312 1364 c 0
 355 1337 390 1323 390 1233 c 0
 390 1062 226 958 166 958 c 0
 151 958 142 965 142 977 c 0
EndSplineSet
EndChar

StartChar: G
Encoding: 71 71 23
Width: 1584
VWidth: 0
Flags: W
HStem: -48 101<636.607 1096.44> 532 79<970 1215 1381 1533> 1291 97<597.228 1108.62>
VStem: 76 184<455.461 858.025> 1215 166<132.707 532> 1272 82<1294 1397> 1288 80<950 1162>
LayerCount: 3
Fore
SplineSet
76 611 m 0xf8
 76 988 362 1388 855 1388 c 0
 1022 1388 1146 1346 1272 1294 c 1
 1272 1397 l 1
 1354 1397 l 1xf4
 1368 950 l 1
 1288 948 l 1xf2
 1274 1162 l 1
 1274 1162 1117 1291 838 1291 c 0
 442 1291 260 1005 260 708 c 0
 260 387 473 53 860 53 c 0
 1100 53 1215 166 1215 166 c 1
 1215 532 l 1
 970 532 l 1
 968 611 l 1
 1533 611 l 1
 1535 532 l 1
 1381 532 l 1
 1381 112 l 1
 1220 44 1078 -48 822 -48 c 0
 306 -48 76 273 76 611 c 0xf8
EndSplineSet
Layer: 2
SplineSet
76 611 m 4
 76 988 362 1388 855 1388 c 4
 1022 1388 1146 1346 1272 1294 c 5
 1272 1397 l 5
 1354 1397 l 5
 1368 950 l 5
 1288 948 l 5
 1274 1162 l 5
 1274 1162 1117 1291 838 1291 c 4
 442 1291 260 1005 260 708 c 4
 260 387 473 53 860 53 c 4
 1100 53 1215 166 1215 166 c 5
 1215 532 l 5
 970 532 l 5
 968 611 l 5
 1533 611 l 5
 1535 532 l 5
 1381 532 l 5
 1381 112 l 5
 1220 44 1078 -48 822 -48 c 4
 306 -48 76 273 76 611 c 4
EndSplineSet
EndChar

StartChar: A
Encoding: 65 65 24
Width: 1476
VWidth: 0
Flags: W
HStem: 0 80<52 162.513 281.024 449 958 1109.97 1307.28 1423> 540 90<501 903> 1396 20G<721.732 812>
LayerCount: 3
Fore
SplineSet
52 0 m 1
 50 80 l 1
 152 86 143 65 218 232 c 0
 491 840 492 840 520 908 c 2
 730 1416 l 1
 772 1416 l 1
 852 1208 1049 724 1216 318 c 0
 1323 56 1314 87 1426 80 c 1
 1423 0 l 1
 956 0 l 1
 958 80 l 1
 1069 82 1110 76 1110 104 c 0
 1110 117 1103 136 1090 168 c 2
 938 540 l 1
 462 540 l 1
 301 180 l 2
 290 156 281 130 281 115 c 0
 281 72 314 83 449 80 c 1
 449 0 l 1
 52 0 l 1
501 630 m 1
 903 630 l 1
 708 1117 l 1
 501 630 l 1
EndSplineSet
Layer: 2
SplineSet
52 0 m 29
 50 80 l 21
 152 86 143 65 218 232 c 4
 491 840 492 840 520 908 c 4
 731 1416 721 1416 745 1416 c 6
 759 1416 l 6
 781 1416 779 1391 841 1240 c 6
 1278 168 l 6
 1318 70 1324 82 1426 80 c 13
 1423 0 l 29
 956 0 l 29
 958 80 l 21
 1069 82 1110 76 1110 104 c 4
 1110 117 1103 136 1090 168 c 6
 938 540 l 13
 462 540 l 21
 301 180 l 6
 290 156 281 130 281 115 c 4
 281 72 314 83 449 80 c 13
 449 0 l 29
 52 0 l 29
501 630 m 29
 903 630 l 29
 708 1117 l 29
 501 630 l 29
EndSplineSet
EndChar

StartChar: B
Encoding: 66 66 25
Width: 1082
VWidth: 0
Flags: W
HStem: 0 91<59 205.919 373.848 709.387> 705 59<372 580.516> 1275 90<48 204.672 372.011 641.698>
VStem: 206 166<97.1974 705 764 1274.11> 790 190<894.704 1139.52> 836 195<206.465 530.628>
LayerCount: 3
Fore
SplineSet
790 1006 m 0xf8
 790 1114 702 1275 434 1275 c 0
 387 1275 372 1260 372 1229 c 2
 372 764 l 1
 574 764 l 2
 714 764 790 903 790 1006 c 0xf8
505 91 m 0
 793 91 836 256 836 366 c 0xf4
 836 652 543 705 369 705 c 1
 372 156 l 2
 372 98 401 91 505 91 c 0
718 742 m 1
 947 690 1031 508 1031 352 c 0xf4
 1031 266 1004 180 939 121 c 0
 813 7 578 0 350 0 c 2
 59 0 l 1
 59 80 l 1
 179 84 206 70 206 140 c 2
 206 1211 l 2
 206 1298 156 1282 44 1285 c 1
 48 1365 l 1
 499 1365 l 2
 874 1365 980 1185 980 1030 c 0xf8
 980 885 844 778 718 742 c 1
EndSplineSet
EndChar

StartChar: C
Encoding: 67 67 26
Width: 1552
VWidth: 0
Flags: W
HStem: -32 90<653.72 1083.05> 1273 97<602.746 1122.05>
VStem: 80 173<478.741 894.74> 1263 78<1310.23 1383> 1302 66<218.694 392.576 991 1145.17>
LayerCount: 3
Fore
SplineSet
80 644 m 0xe8
 80 1136 494 1370 822 1370 c 0
 1124 1370 1198 1306 1230 1306 c 0
 1264 1306 1261 1320 1263 1383 c 1
 1341 1383 l 1xf0
 1345 1254 1354 1123 1366 991 c 1
 1292 990 l 1
 1268 1192 1294 1146 1168 1210 c 0
 1109 1240 968 1273 828 1273 c 0
 483 1273 253 1011 253 702 c 0
 253 377 511 58 874 58 c 0
 1083 58 1300 208 1302 269 c 2
 1308 440 l 1
 1381 440 l 1
 1368 142 l 1
 1368 142 1124 -32 823 -32 c 0
 349 -32 80 231 80 644 c 0xe8
EndSplineSet
EndChar

StartChar: D
Encoding: 68 68 27
Width: 1491
VWidth: 0
Flags: W
HStem: -0 80<71 227.51 401.383 844.851> 1270 95<401.141 830.737> 1285 80<40 229.737>
VStem: 231 166<87.0664 1266.11> 1228 185<481.697 902.509>
LayerCount: 3
Fore
SplineSet
557 1270 m 2xd8
 482 1270 l 2
 417 1270 397 1261 397 1174 c 2
 397 174 l 2
 397 88 400 80 571 80 c 0
 1097 80 1228 398 1228 672 c 0
 1228 960 1035 1270 557 1270 c 2xd8
1413 735 m 0
 1413 455 1251 0 601 -0 c 2
 71 0 l 1
 69 80 l 1
 215 86 231 64 231 171 c 2
 231 1211 l 2
 231 1298 227 1282 40 1285 c 1
 35 1365 l 1xb8
 587 1365 l 2
 804 1365 979 1363 1128 1276 c 0
 1320 1164 1413 952 1413 735 c 0
EndSplineSet
EndChar

StartChar: E
Encoding: 69 69 28
Width: 1254
VWidth: 0
Flags: W
HStem: 0 95<410.225 908.582> 0 80<80 239.812> 726 90<408.767 858.76> 1278 87<41 240.246 410.688 1007.38>
VStem: 242 166<97.0754 725.138 816.534 1274.17> 862 75<503 724.359 818.388 994> 1024 80<1044 1272.45>
LayerCount: 3
Fore
SplineSet
39 1365 m 25x7e
 1093 1365 l 17
 1095 1248 1097 1160 1104 1044 c 9
 1024 1041 l 17
 1016 1252 1004 1271 975 1275 c 0
 955 1278 918 1278 874 1278 c 2
 526 1278 l 2
 414 1278 408 1274 408 1182 c 2
 408 898 l 2
 408 822 410 816 476 816 c 2
 784 816 l 2
 872 816 860 825 862 995 c 9
 937 994 l 25
 937 503 l 25
 862 503 l 17
 860 724 872 726 789 726 c 2
 481 726 l 2
 411 726 408 716 408 662 c 2
 408 179 l 2
 408 108 419 95 473 95 c 0xbe
 1071 102 1051 103 1066 156 c 0
 1080 204 1090 286 1099 328 c 9
 1169 318 l 25
 1118 0 l 25
 80 0 l 25
 79 80 l 17
 229 84 242 70 242 158 c 2
 242 1197 l 2
 242 1291 232 1282 41 1285 c 9
 39 1365 l 25x7e
EndSplineSet
EndChar

StartChar: F
Encoding: 70 70 29
Width: 1178
VWidth: 0
Flags: W
HStem: 0 80<80 239.812 412.274 606> 726 90<408.767 858.76> 1278 87<46 240.858 410.688 1007.38>
VStem: 242 166<83.6003 725.138 816.534 1274.64> 862 75<503 724.359 818.281 994> 1024 80<1044 1272.45>
LayerCount: 3
Fore
SplineSet
80 0 m 25
 79 80 l 17
 229 84 242 70 242 158 c 2
 242 1197 l 2
 242 1284 240 1285 46 1285 c 9
 44 1365 l 25
 1093 1365 l 17
 1095 1248 1097 1160 1104 1044 c 9
 1024 1041 l 17
 1016 1252 1004 1271 975 1275 c 0
 955 1278 918 1278 874 1278 c 2
 526 1278 l 2
 414 1278 408 1274 408 1182 c 2
 408 898 l 2
 408 822 410 816 476 816 c 2
 784 816 l 2
 872 816 860 824 862 994 c 9
 937 994 l 25
 937 503 l 25
 862 503 l 17
 860 724 872 726 789 726 c 2
 481 726 l 2
 411 726 408 716 408 662 c 2
 408 179 l 2
 408 108 414 80 468 80 c 2
 606 80 l 9
 606 0 l 25
 80 0 l 25
EndSplineSet
EndChar

StartChar: H
Encoding: 72 72 30
Width: 1441
VWidth: 0
Flags: W
HStem: 0 80<76 229.244 401.522 601 910 1060.25 1232.1 1420> 705 100<397 1063> 1285 80<57 228.668 403.602 567 870 1061.58 1232.88 1389>
VStem: 231 166<85.7248 705 805 1278.8> 1063 166<84.9441 705 805 1281.27>
LayerCount: 3
Fore
SplineSet
57 1285 m 1
 57 1365 l 1
 567 1365 l 1
 567 1285 l 1
 440 1278 397 1302 397 1194 c 2
 397 805 l 1
 1063 805 l 1
 1063 1211 l 2
 1063 1298 1057 1282 870 1285 c 1
 868 1365 l 1
 1389 1365 l 1
 1389 1285 l 1
 1262 1278 1229 1304 1229 1199 c 2
 1229 164 l 2
 1229 72 1244 82 1422 80 c 1
 1420 0 l 1
 910 0 l 1
 907 80 l 1
 1053 86 1063 64 1063 171 c 2
 1063 705 l 1
 397 705 l 1
 397 169 l 2
 397 70 418 82 604 80 c 1
 601 0 l 1
 76 0 l 1
 74 80 l 1
 230 84 231 64 231 171 c 2
 231 1216 l 2
 231 1290 204 1282 57 1285 c 1
EndSplineSet
EndChar

StartChar: I
Encoding: 73 73 31
Width: 647
VWidth: 0
Flags: W
HStem: 0 80<66 226.897 401.099 588> 1285 80<43 229.737 402.376 557>
VStem: 231 166<84.1998 1280.15>
LayerCount: 3
Fore
SplineSet
40 1285 m 1
 43 1365 l 1
 557 1365 l 1
 557 1285 l 1
 430 1278 397 1303 397 1189 c 2
 397 174 l 2
 397 68 410 82 588 80 c 1
 589 0 l 1
 66 0 l 1
 64 80 l 1
 210 86 231 64 231 171 c 2
 231 1211 l 2
 231 1298 227 1282 40 1285 c 1
EndSplineSet
EndChar

StartChar: J
Encoding: 74 74 32
Width: 612
VWidth: 0
Flags: W
HStem: -528 112<-52 147.63> 1285 80<63 229.266 401.64 551>
VStem: 231 166<-270.71 1280.85>
LayerCount: 3
Fore
SplineSet
98 -416 m 0
 212 -416 231 -223 231 -50 c 2
 231 1211 l 2
 231 1298 219 1280 63 1285 c 1
 63 1365 l 1
 554 1365 l 1
 551 1285 l 1
 424 1278 397 1303 397 1189 c 2
 397 -5 l 2
 397 -144 385 -221 345 -288 c 0
 310 -347 205 -455 128 -495 c 0
 88 -515 44 -528 -10 -528 c 0
 -94 -528 -170 -476 -170 -430 c 0
 -170 -373 -90 -304 -44 -304 c 0
 17 -304 36 -416 98 -416 c 0
EndSplineSet
EndChar

StartChar: K
Encoding: 75 75 33
Width: 1459
VWidth: 0
Flags: W
HStem: 0 80<60 208.613 383.185 583 1211.38 1397> 1285 80<21 209.737 381.885 533 851 1025.98 1160.06 1339>
VStem: 211 166<86.2732 623 719 1280.39>
LayerCount: 3
Fore
SplineSet
932 1285 m 2
 851 1285 l 1
 848 1365 l 1
 1339 1365 l 1
 1339 1285 l 1
 1286 1285 l 2
 1198 1285 1190 1272 1038 1151 c 2
 575 780 l 1
 1194 136 l 2
 1239 89 1255 80 1282 80 c 2
 1400 80 l 1
 1397 0 l 1
 1076 0 l 1
 453 684 l 1
 377 623 l 1
 377 174 l 2
 377 68 405 82 583 80 c 1
 584 0 l 1
 60 0 l 1
 58 80 l 1
 204 86 211 64 211 171 c 2
 211 1211 l 2
 211 1298 207 1282 20 1285 c 1
 21 1365 l 1
 533 1365 l 1
 533 1285 l 1
 406 1278 377 1303 377 1189 c 2
 377 719 l 1
 974 1205 l 2
 1008 1233 1026 1252 1026 1264 c 0
 1026 1280 996 1285 932 1285 c 2
EndSplineSet
EndChar

StartChar: L
Encoding: 76 76 34
Width: 1167
VWidth: 0
Flags: W
HStem: 0 95<407.844 908.44> 0 80<88 238.734> 1285 80<62 236.343 409.556 586>
VStem: 240 166<97.0754 1279.61>
LayerCount: 3
Fore
SplineSet
240 158 m 2x70
 240 1216 l 2
 240 1296 192 1281 59 1285 c 1
 62 1365 l 1
 586 1365 l 1
 586 1285 l 1
 442 1276 406 1304 406 1208 c 2
 406 174 l 2
 406 103 419 95 473 95 c 0xb0
 791 98 932 104 990 114 c 0
 1030 121 1036 122 1074 347 c 9
 1144 343 l 25
 1078 0 l 25
 88 0 l 25
 87 80 l 17
 237 84 240 70 240 158 c 2x70
EndSplineSet
EndChar

StartChar: M
Encoding: 77 77 35
Width: 1647
VWidth: 0
Flags: W
HStem: -15 21G<774.5 795.5> 0 80<46 183.833 284.922 488 1101 1261.9 1435.53 1598> 1285 80<48 207.436 1434.83 1608>
VStem: 188 95<86.122 930.526> 207 84<421.474 1083> 1266 166<85.3016 1111>
LayerCount: 3
Fore
SplineSet
291 1083 m 1xac
 283 149 l 2
 283 81 295 81 488 80 c 1
 488 0 l 1
 46 0 l 1
 46 80 l 1
 176 84 186 71 188 176 c 2x74
 207 1176 l 2
 207 1198 208 1215 208 1229 c 0
 208 1274 200 1284 152 1284 c 2
 48 1285 l 1
 46 1365 l 1
 354 1365 l 1
 822 272 l 1
 1280 1365 l 1
 1608 1365 l 1
 1608 1285 l 1
 1478 1282 1432 1294 1432 1219 c 2
 1432 174 l 2
 1432 68 1443 87 1598 80 c 1
 1599 0 l 1
 1101 0 l 1
 1099 80 l 1x6c
 1245 86 1266 64 1266 171 c 2
 1266 1111 l 1
 951 366 l 2
 792 -11 809 -15 782 -15 c 0
 767 -15 747 27 702 132 c 2
 291 1083 l 1xac
EndSplineSet
EndChar

StartChar: N
Encoding: 78 78 36
Width: 1483
VWidth: 0
Flags: W
HStem: -34 21G<1224.5 1274> 0 80<65 209.432 315.281 495> 1285 80<33 193 1007 1184.57 1291.06 1444>
VStem: 213 96<86.6719 1149> 1188 96<282 1277.89>
LayerCount: 3
Fore
SplineSet
31 1365 m 1
 349 1365 l 1
 1188 282 l 1
 1188 1211 l 2
 1188 1298 1154 1282 1004 1285 c 1
 1007 1365 l 1
 1444 1365 l 1
 1444 1285 l 1
 1332 1281 1284 1296 1284 1194 c 2
 1284 15 l 2
 1284 -19 1283 -34 1265 -34 c 2
 1236 -34 l 2
 1213 -34 1218 -32 1191 2 c 2
 1048 186 l 0
 821 478 l 0
 299 1149 l 1
 309 174 l 2
 310 75 330 81 495 80 c 1
 495 0 l 1
 65 0 l 1
 65 80 l 1
 195 84 213 66 213 171 c 2
 213 1260 l 1
 193 1285 l 1
 33 1285 l 1
 31 1365 l 1
EndSplineSet
EndChar

StartChar: O
Encoding: 79 79 37
Width: 1552
VWidth: 0
Flags: W
HStem: -32 88<617.918 1008.57> 1310 85<552.197 928.654>
VStem: 70 183<475.544 937.912> 1297 185<419.348 904.817>
LayerCount: 3
Fore
SplineSet
1482 681 m 0
 1482 324 1245 -32 763 -32 c 0
 298 -32 70 317 70 670 c 0
 70 1154 426 1395 780 1395 c 0
 1132 1395 1482 1157 1482 681 c 0
820 56 m 0
 1066 56 1297 244 1297 631 c 0
 1297 1065 1015 1310 738 1310 c 0
 552 1310 253 1185 253 738 c 0
 253 407 452 56 820 56 c 0
EndSplineSet
EndChar

StartChar: p
Encoding: 112 112 38
Width: 1013
VWidth: 0
Flags: HMW
HStem: -530 65<26 161.9 309.42 498> -25 67<382.941 677.265> 686 120<454.586 660.309> 803 20G<253.5 307>
VStem: 163 144<-460.004 11 88.3012 627.217 656 710.99> 808 144<201.109 524.928>
LayerCount: 3
Fore
SplineSet
24 -465 m 1
 149 -465 163 -461 163 -416 c 2
 163 654 l 2
 163 698 152 711 132 711 c 0
 113 711 82 699 38 691 c 1
 36 756 l 1
 112 771 200 795 307 823 c 1
 307 656 l 1
 307 656 456 806 612 806 c 0
 806 806 952 625 952 412 c 0
 952 162 796 -25 561 -25 c 0
 417 -25 307 11 307 11 c 1
 307 -414 l 2
 307 -468 344 -463 499 -465 c 1
 498 -530 l 1
 26 -530 l 1
 24 -465 l 1
307 112 m 1
 307 112 412 42 555 42 c 0
 757 42 808 238 808 346 c 0
 808 534 680 686 521 686 c 0
 407 686 328 609 307 592 c 1
 307 112 l 1
EndSplineSet
EndChar

StartChar: q
Encoding: 113 113 39
Width: 1020
VWidth: 0
Flags: W
HStem: -530 65<482 697.549 853.122 1000> -14 124<363.886 576.971> 742 76<340.467 638.405>
VStem: 53 141<293.018 571.621> 706 144<-456.505 119 171.699 689.512> 827 42<756.801 811>
LayerCount: 3
Fore
SplineSet
53 376 m 0xf8
 53 652 284 818 504 818 c 0
 647 818 758 744 780 744 c 0
 823 744 827 812 827 812 c 1
 869 811 l 1xf4
 863 680 850 578 850 270 c 2
 850 -380 l 2
 850 -470 852 -463 1000 -465 c 1
 1000 -530 l 1
 482 -530 l 1
 477 -465 l 1
 625 -458 706 -482 706 -395 c 2
 706 119 l 1
 625 60 542 -14 416 -14 c 0
 179 -14 53 177 53 376 c 0xf8
194 455 m 0
 194 270 351 110 507 110 c 0
 633 110 696 211 706 221 c 1
 706 666 l 1xf8
 706 666 600 742 488 742 c 0
 279 742 194 568 194 455 c 0
EndSplineSet
EndChar

StartChar: v
Encoding: 118 118 40
Width: 965
VWidth: 0
Flags: W
HStem: -36 21G<492 529.559> 737 65<70 162.171 338.026 437 662 757.844 860.997 944>
LayerCount: 3
Fore
SplineSet
70 737 m 1
 70 802 l 1
 438 802 l 1
 437 737 l 1
 373 735 338 742 338 709 c 0
 338 694 345 672 360 636 c 2
 542 203 l 1
 668 507 758 657 758 699 c 0
 758 735 746 737 661 737 c 1
 662 802 l 1
 944 802 l 1
 944 737 l 1
 860 730 870 781 616 186 c 2
 521 -36 l 1
 492 -35 l 1
 202 626 l 2
 155 733 150 737 70 737 c 1
EndSplineSet
EndChar

StartChar: x
Encoding: 120 120 41
Width: 1064
VWidth: 0
Flags: W
HStem: 0 65<42 167.306 284.045 428 621 724.982 928.838 1035> 737 65<66 173.092 373.042 510 667 757.979 872.382 1026>
LayerCount: 3
Fore
SplineSet
40 0 m 25
 42 65 l 17
 120 70 133 59 210 135 c 2
 468 394 l 1
 203 674 l 2
 160 720 146 737 66 737 c 9
 66 802 l 25
 510 802 l 25
 510 737 l 17
 431 735 373 740 373 714 c 0
 373 705 381 692 396 674 c 2
 556 490 l 1
 719 662 l 2
 743 688 758 705 758 716 c 0
 758 731 730 735 667 737 c 9
 667 802 l 25
 1026 802 l 25
 1027 737 l 17
 886 732 903 737 836 670 c 2
 606 440 l 1
 849 182 l 2
 975 49 940 72 1035 65 c 9
 1036 0 l 25
 621 0 l 25
 621 65 l 17
 701 65 725 75 725 91 c 0
 725 106 703 125 685 146 c 2
 515 345 l 1
 311 128 l 2
 292 108 284 95 284 86 c 0
 284 61 345 67 428 65 c 9
 428 0 l 25
 40 0 l 25
EndSplineSet
EndChar

StartChar: z
Encoding: 122 122 42
Width: 863
VWidth: 0
Flags: MW
HStem: 0 124<212 724.643> 669 124<143.043 616>
VStem: 58 54<542 656.661> 743 68<140.977 310>
LayerCount: 3
Fore
SplineSet
29 21 m 0
 29 39 56 65 85 96 c 2
 616 669 l 1
 198 669 l 2
 128 669 128 668 112 540 c 9
 58 542 l 25
 92 834 l 25
 143 834 l 17
 144 798 140 793 187 793 c 2
 738 793 l 2
 793 793 809 790 809 779 c 0
 809 765 777 741 731 690 c 2
 212 124 l 1
 651 124 l 2
 722 124 729 132 743 310 c 9
 811 310 l 17
 806 236 797 142 788 0 c 1
 87 0 l 2
 51 0 29 0 29 21 c 0
EndSplineSet
EndChar

StartChar: P
Encoding: 80 80 43
Width: 1193
VWidth: 0
Flags: W
HStem: 0 80<94 230.597 397.763 638> 538 66<435.831 764.381> 1285 80<103 228.94 401.411 679.632>
VStem: 231 166<83.2053 581 624 1283.42> 925 193<738.306 1083.96>
LayerCount: 3
Fore
SplineSet
925 915 m 0
 925 1156 713 1285 459 1285 c 0
 412 1285 397 1274 397 1189 c 2
 397 644 l 1
 397 644 450 604 590 604 c 0
 805 604 925 710 925 915 c 0
687 538 m 0
 539 538 401 580 397 581 c 1
 397 139 l 2
 397 65 411 86 638 80 c 1
 639 0 l 1
 94 0 l 1
 94 80 l 1
 224 85 231 68 231 140 c 2
 231 1211 l 2
 231 1298 212 1282 100 1285 c 1
 103 1365 l 1
 524 1365 l 2
 734 1365 849 1354 945 1277 c 0
 1043 1198 1118 1076 1118 912 c 0
 1118 732 982 538 687 538 c 0
EndSplineSet
EndChar

StartChar: Q
Encoding: 81 81 44
Width: 1562
VWidth: 0
Flags: W
HStem: -487 123<1453.82 1648.84> 1310 85<552.197 928.654>
VStem: 70 183<476.356 937.912> 1297 185<422.576 904.817>
LayerCount: 3
Fore
SplineSet
820 56 m 0
 1066 56 1297 244 1297 631 c 0
 1297 1065 1015 1310 738 1310 c 0
 552 1310 253 1185 253 738 c 0
 253 407 452 56 820 56 c 0
1696 -365 m 0
 1696 -389 1667 -487 1479 -487 c 0
 1250 -487 1083 -291 938 -172 c 0
 818 -74 778 -50 725 -35 c 0
 643 -12 566 -27 405 58 c 0
 163 186 70 445 70 670 c 0
 70 1154 426 1395 780 1395 c 0
 1132 1395 1482 1157 1482 681 c 0
 1482 388 1328 153 1115 46 c 0
 1080 28 986 -2 986 -2 c 1
 1186 -86 1427 -364 1578 -364 c 0
 1639 -364 1656 -343 1677 -343 c 0
 1690 -343 1696 -353 1696 -365 c 0
EndSplineSet
EndChar

StartChar: R
Encoding: 82 82 45
Width: 1382
VWidth: 0
Flags: W
HStem: 0 80<69 205.597 372.929 614 1178.16 1340> 628 61<372.69 618.283> 1285 80<28 200.174 376.411 654.37>
VStem: 206 166<83.2249 641 695.328 1278.54> 860 202<820.977 1116.18>
LayerCount: 3
Fore
SplineSet
1062 980 m 0
 1062 852 989 714 770 657 c 5
 1164 136 l 6
 1204 84 1225 80 1252 80 c 6
 1340 80 l 5
 1343 0 l 5
 1046 0 l 5
 608 630 l 5
 592 629 576 628 560 628 c 0
 430 628 401 634 372 641 c 1
 372 139 l 2
 372 65 391 86 618 80 c 1
 614 0 l 1
 69 0 l 1
 69 80 l 1
 199 85 206 68 206 140 c 2
 206 1211 l 2
 206 1298 139 1282 27 1285 c 1
 28 1365 l 1
 499 1365 l 2
 709 1365 819 1344 915 1267 c 0
 1014 1187 1062 1081 1062 980 c 0
434 1285 m 0
 387 1285 372 1274 372 1189 c 2
 372 709 l 1
 372 709 400 689 504 689 c 0
 753 689 860 772 860 951 c 0
 860 1146 711 1285 434 1285 c 0
EndSplineSet
EndChar

StartChar: S
Encoding: 83 83 46
Width: 1018
VWidth: 0
Flags: W
HStem: -19 87<232.057 637.12> 1286 96<348.47 702.819> 1378 20G<762 833.604>
VStem: 110 70<-52.2288 -25.5639> 118 136<939.804 1179.68> 751 167<195.596 433.724> 762 70<1341.04 1394>
LayerCount: 3
Fore
SplineSet
31 349 m 1xd4
 103 356 l 1
 130 230 l 2
 149 141 150 140 225 113 c 0
 310 82 371 68 479 68 c 0
 625 68 751 160 751 316 c 0
 751 430 655 505 538 576 c 0
 354 687 118 760 118 1017 c 0
 118 1229 322 1382 527 1382 c 0xcc
 628 1382 717 1341 731 1341 c 0
 762 1341 762 1394 762 1394 c 1
 832 1398 l 1xaa
 862 1024 l 1
 789 1022 l 1
 770 1204 l 1
 770 1204 660 1286 492 1286 c 0
 365 1286 254 1196 254 1067 c 0xca
 254 758 918 734 918 364 c 0
 918 168 750 -19 452 -19 c 0
 312 -19 256 18 215 18 c 0
 184 18 178 -6 178 -25 c 0
 178 -37 180 -51 180 -51 c 1
 110 -57 l 1
 86 81 58 216 31 349 c 1xd4
EndSplineSet
EndChar

StartChar: T
Encoding: 84 84 47
Width: 1394
VWidth: 0
Flags: W
HStem: 2 78<452 620.487 795.693 991> 1275 90<208.625 620.292 791.365 1234.39>
VStem: 111 74<1037 1247.77> 624 166<85.316 1273.04> 1224 74<1040 1207.58>
LayerCount: 3
Fore
SplineSet
111 1037 m 1
 119 1114 128 1211 141 1365 c 1
 1323 1365 l 1
 1305 1177 1304 1104 1298 1038 c 1
 1224 1040 l 1
 1233 1134 1236 1179 1236 1209 c 0
 1236 1266 1210 1275 1132 1275 c 2
 896 1275 l 2
 790 1275 790 1272 790 1178 c 2
 790 174 l 2
 790 63 822 84 991 80 c 1
 993 0 l 1
 452 2 l 1
 452 80 l 1
 603 90 624 62 624 166 c 2
 624 1162 l 2
 624 1271 614 1275 534 1275 c 2
 320 1275 l 2
 186 1275 202 1244 185 1034 c 1
 111 1037 l 1
EndSplineSet
EndChar

StartChar: U
Encoding: 85 85 48
Width: 1495
VWidth: 0
Flags: W
HStem: -36 117<600.015 1076.56> 1285 80<93 228.465 402.431 584 1073 1249.57 1353.29 1459>
VStem: 231 166<272.683 1278.56> 1253 96<248.527 1281.27>
LayerCount: 3
Fore
SplineSet
1349 466 m 2
 1349 202 1247 -36 826 -36 c 0
 368 -36 231 192 231 441 c 2
 231 1211 l 2
 231 1298 206 1282 93 1285 c 1
 93 1365 l 1
 584 1365 l 1
 585 1285 l 1
 458 1280 397 1300 397 1209 c 2
 397 451 l 2
 397 384 420 81 826 81 c 0
 1246 81 1253 306 1253 546 c 2
 1253 1211 l 2
 1253 1298 1219 1282 1069 1285 c 1
 1073 1365 l 1
 1459 1365 l 1
 1459 1285 l 1
 1377 1281 1349 1296 1349 1194 c 2
 1349 466 l 2
EndSplineSet
EndChar

StartChar: V
Encoding: 86 86 49
Width: 1554
VWidth: 0
Flags: W
HStem: -31 21G<737.775 780> 1285 80<44 214.28 397.012 554 1081 1246.97 1352.95 1489>
LayerCount: 3
Fore
SplineSet
806 216 m 1
 1237 1205 l 2
 1244 1221 1247 1234 1247 1244 c 0
 1247 1283 1202 1285 1146 1285 c 2
 1081 1285 l 1
 1078 1365 l 1
 1493 1365 l 1
 1489 1285 l 1
 1476 1285 1439 1284 1429 1284 c 0
 1349 1282 1352 1255 1240 1002 c 2
 780 -30 l 1
 746 -31 l 1
 271 1124 l 2
 196 1304 210 1281 44 1285 c 1
 44 1365 l 1
 557 1365 l 1
 554 1285 l 1
 446 1285 l 2
 414 1285 397 1282 397 1258 c 0
 397 1239 405 1217 427 1161 c 2
 806 216 l 1
EndSplineSet
EndChar

StartChar: W
Encoding: 87 87 50
Width: 2076
VWidth: 0
Flags: W
HStem: -31 19G<624.681 666 1412 1453.69> 1285 80<43 157.037 329.689 495 809 971.033 1134.01 1297 1689 1842.7 1940.5 2039>
LayerCount: 3
Fore
SplineSet
43 1285 m 1
 43 1365 l 1
 498 1365 l 1
 495 1285 l 1
 436 1279 329 1296 329 1239 c 0
 329 1233 330 1225 333 1217 c 2
 688 242 l 1
 1027 1106 l 1
 1004 1170 979 1285 909 1285 c 2
 809 1285 l 1
 809 1365 l 1
 1297 1365 l 1
 1297 1285 l 1
 1187 1285 l 2
 1143 1285 1134 1279 1134 1251 c 0
 1134 1218 1142 1205 1470 248 c 1
 1836 1205 l 2
 1841 1219 1843 1231 1843 1240 c 0
 1843 1283 1797 1285 1743 1285 c 2
 1689 1285 l 1
 1689 1365 l 1
 2039 1365 l 1
 2041 1285 l 1
 2028 1285 2015 1284 2005 1284 c 0
 1948 1282 1946 1268 1898 1142 c 2
 1446 -33 l 1
 1412 -32 l 1
 1064 996 l 1
 666 -30 l 1
 632 -31 l 1
 198 1155 l 2
 145 1301 125 1281 43 1285 c 1
EndSplineSet
EndChar

StartChar: X
Encoding: 88 88 51
Width: 1637
VWidth: 0
Flags: W
HStem: 0 80<49 214.029 329.027 486 967 1117.95 1347.63 1494> 1285 80<84 234.053 462.019 604 1044 1195.96 1325.59 1483>
LayerCount: 3
Fore
SplineSet
802 787 m 1
 1180 1214 1196 1228 1196 1258 c 0
 1196 1289 1143 1284 1043 1285 c 1
 1044 1365 l 1
 1483 1365 l 1
 1483 1285 l 1
 1351 1285 1358 1284 1273 1190 c 2
 854 728 l 1
 1392 47 1336 82 1494 80 c 1
 1496 0 l 1
 967 0 l 1
 967 80 l 1
 1056 83 1118 76 1118 106 c 0
 1118 126 1114 127 745 601 c 1
 376 174 l 2
 342 135 329 114 329 101 c 0
 329 76 366 82 486 80 c 1
 486 0 l 1
 49 0 l 1
 49 80 l 1
 201 80 184 85 306 222 c 2
 697 663 l 1
 292 1174 l 2
 204 1285 218 1282 84 1285 c 1
 83 1365 l 1
 604 1365 l 1
 604 1285 l 1
 549 1285 l 2
 488 1285 462 1283 462 1263 c 0
 462 1239 468 1234 802 787 c 1
EndSplineSet
Layer: 2
SplineSet
49 0 m 5
 49 80 l 5
 201 80 184 85 306 222 c 6
 697 663 l 5
 292 1174 l 6
 204 1285 218 1282 84 1285 c 5
 83 1365 l 5
 604 1365 l 5
 604 1285 l 5
 493 1285 465 1280 465 1254 c 4
 465 1233 470 1231 802 787 c 5
 1184 1218 1191 1221 1191 1249 c 4
 1191 1280 1151 1284 1043 1285 c 5
 1044 1365 l 5
 1483 1365 l 5
 1483 1285 l 5
 1351 1285 1358 1284 1273 1190 c 6
 854 728 l 5
 1392 47 1336 82 1494 80 c 5
 1496 0 l 5
 967 0 l 5
 967 80 l 5
 1056 83 1118 76 1118 106 c 4
 1118 126 1114 127 745 601 c 5
 376 174 l 6
 342 135 329 114 329 101 c 4
 329 76 366 82 486 80 c 5
 486 0 l 5
 49 0 l 5
EndSplineSet
EndChar

StartChar: Y
Encoding: 89 89 52
Width: 1289
VWidth: 0
Flags: W
HStem: 0 80<352 543.481 717.121 926> 1285 80<45 155.471 357.045 504 891 1055.95 1150.98 1261>
VStem: 548 166<85.0458 620>
LayerCount: 3
Fore
SplineSet
42 1285 m 1
 45 1365 l 1
 504 1365 l 1
 504 1285 l 1
 418 1281 357 1290 357 1257 c 0
 357 1239 368 1227 687 724 c 1
 1045 1232 l 2
 1052 1243 1056 1251 1056 1258 c 0
 1056 1287 990 1283 891 1285 c 1
 888 1365 l 1
 1261 1365 l 1
 1261 1285 l 1
 1186 1282 1176 1286 1115 1198 c 2
 714 620 l 1
 714 174 l 2
 714 68 717 84 927 80 c 1
 926 0 l 1
 351 0 l 1
 352 80 l 1
 526 83 548 67 548 171 c 2
 548 636 l 1
 212 1160 l 2
 132 1284 143 1285 42 1285 c 1
EndSplineSet
EndChar

StartChar: Z
Encoding: 90 90 53
Width: 1359
VWidth: 0
Flags: W
HStem: 0 170<276 1178.56> 1205 160<170.61 1062>
VStem: 1218 78<184.893 359>
LayerCount: 3
Fore
SplineSet
48 40 m 0
 48 64 100 112 144 163 c 2
 1062 1205 l 1
 227 1205 l 2
 171 1205 172 1194 160 1071 c 0
 158 1049 152 1023 151 999 c 1
 69 1004 l 1
 83 1126 96 1244 100 1364 c 1
 100 1364 164 1365 318 1365 c 2
 1216 1365 l 2
 1256 1365 1280 1364 1280 1346 c 0
 1280 1316 1215 1242 1208 1234 c 2
 276 170 l 1
 1088 170 l 2
 1136 170 1170 171 1179 183 c 0
 1198 206 1218 361 1218 361 c 1
 1296 359 l 1
 1288 272 1278 241 1256 0 c 1
 93 0 l 2
 70 0 48 5 48 40 c 0
EndSplineSet
EndChar

StartChar: period
Encoding: 46 46 54
Width: 522
VWidth: 0
Flags: W
HStem: -20 196<164.559 296.606>
VStem: 133 194<10.3429 144.573>
LayerCount: 3
Fore
SplineSet
133 83 m 0
 133 114 209 176 232 176 c 0
 273 176 327 99 327 74 c 0
 327 39 256 -20 226 -20 c 0
 201 -20 133 46 133 83 c 0
EndSplineSet
EndChar

StartChar: hyphen
Encoding: 45 45 55
Width: 604
VWidth: 0
Flags: W
HStem: 493 272
VStem: 50 504
LayerCount: 3
Fore
SplineSet
50 493 m 25
 50 617 l 25
 554 765 l 25
 554 641 l 25
 50 493 l 25
EndSplineSet
EndChar

StartChar: comma
Encoding: 44 44 56
Width: 497
VWidth: 0
Flags: W
HStem: -299 457
VStem: 216 120<-167.833 21.3944>
LayerCount: 3
Fore
SplineSet
71 -271 m 0
 71 -233 216 -215 216 -65 c 0
 216 34 128 24 128 61 c 0
 128 93 206 158 222 158 c 1
 231 157 336 145 336 -5 c 0
 336 -89 292 -189 243 -236 c 0
 189 -287 120 -299 98 -299 c 0
 72 -299 71 -277 71 -271 c 0
EndSplineSet
EndChar

StartChar: exclam
Encoding: 33 33 57
Width: 522
VWidth: 0
Flags: W
HStem: -21 177<148.354 276.1>
VStem: 124 176<4.04491 130.064 852.411 1317>
LayerCount: 3
Fore
SplineSet
124 70 m 0
 124 98 191 156 212 156 c 0
 247 156 300 92 300 67 c 0
 300 36 239 -21 211 -21 c 0
 187 -21 124 38 124 70 c 0
163 384 m 0
 139 689 128 1158 128 1270 c 0
 128 1328 249 1338 262 1338 c 0
 280 1338 289 1329 289 1314 c 0
 284 1066 240 766 233 521 c 0
 229 385 239 312 197 312 c 0
 168 312 165 371 163 384 c 0
EndSplineSet
EndChar

StartChar: question
Encoding: 63 63 58
Width: 690
VWidth: 0
Flags: W
HStem: -19 194<266.65 398.354> 1214 153<177.005 391.813>
VStem: 164 119<374.082 568.174> 234 196<12.7017 144.698> 524 108<925.334 1119.9>
LayerCount: 3
Fore
SplineSet
107 1237 m 0xe8
 107 1269 198 1367 288 1367 c 0
 374 1367 632 1175 632 970 c 0
 632 904 621 865 576 812 c 0
 437 648 283 579 283 468 c 0
 283 359 378 331 378 293 c 0
 378 278 368 267 349 267 c 0
 298 267 164 360 164 526 c 0
 164 758 524 840 524 1046 c 0
 524 1120 395 1214 260 1214 c 0
 227 1214 192 1212 134 1212 c 0
 115 1212 107 1218 107 1237 c 0xe8
234 78 m 0xd8
 234 117 307 175 334 175 c 0
 369 175 429 107 430 77 c 0
 430 52 367 -18 330 -19 c 0
 299 -19 234 54 234 78 c 0xd8
EndSplineSet
EndChar

StartChar: semicolon
Encoding: 59 59 59
Width: 522
VWidth: 0
Flags: W
HStem: 621 194<163.307 296.05>
VStem: 128 208<21.25 114.141 660.741 777.974> 216 120<-167.302 19.928>
LayerCount: 3
Fore
SplineSet
76 -266 m 0xa0
 76 -228 216 -215 216 -65 c 0xa0
 216 34 128 24 128 61 c 0xc0
 128 92 196 160 213 160 c 0
 226 160 336 127 336 -5 c 0
 336 -89 292 -189 243 -236 c 0
 189 -287 128 -298 106 -298 c 0
 80 -298 76 -272 76 -266 c 0xa0
132 714 m 0
 132 755 203 815 228 815 c 0
 263 815 328 750 328 721 c 0
 328 693 265 621 232 621 c 0
 203 621 132 686 132 714 c 0
EndSplineSet
EndChar

StartChar: colon
Encoding: 58 58 60
Width: 522
VWidth: 0
Flags: W
HStem: -19 194<162.343 296.573> 621 194<163.307 296.05>
VStem: 132 196<11.3942 143.441 653.341 784.359>
LayerCount: 3
Fore
SplineSet
132 82 m 0
 132 107 198 175 235 175 c 0
 266 175 328 99 328 76 c 0
 328 35 251 -19 226 -19 c 0
 191 -19 132 52 132 82 c 0
132 714 m 0
 132 755 203 815 228 815 c 0
 263 815 328 750 328 721 c 0
 328 693 265 621 232 621 c 0
 203 621 132 686 132 714 c 0
EndSplineSet
EndChar

StartChar: emdash
Encoding: 8212 8212 61
Width: 2048
VWidth: 1000
Flags: W
HStem: 541 88<0 2048>
LayerCount: 3
Fore
SplineSet
0 541 m 1
 0 629 l 1
 2048 629 l 1
 2048 541 l 1
 0 541 l 1
EndSplineSet
EndChar

StartChar: endash
Encoding: 8211 8211 62
Width: 1024
VWidth: 1000
Flags: W
HStem: 541 88<0 1024>
LayerCount: 3
Fore
SplineSet
0 541 m 1
 0 629 l 1
 1024 629 l 1
 1024 541 l 1
 0 541 l 1
EndSplineSet
EndChar

StartChar: afii00208
Encoding: 8213 8213 63
Width: 2048
VWidth: 1000
Flags: W
HStem: 541 88<0 2048>
LayerCount: 3
Fore
SplineSet
0 541 m 1
 0 629 l 1
 2048 629 l 1
 2048 541 l 1
 0 541 l 1
EndSplineSet
EndChar

StartChar: quoteleft
Encoding: 8216 8216 64
Width: 497
VWidth: 0
Flags: W
HStem: 958 434<279 366>
VStem: 142 122<1108.78 1263.34>
LayerCount: 3
Fore
SplineSet
390 1373 m 0
 390 1323 264 1316 264 1189 c 0
 264 1087 368 1106 368 1073 c 0
 368 1068 365 1062 360 1054 c 2
 310 982 l 2
 306 976 291 958 279 958 c 0
 268 958 250 967 220 986 c 0
 177 1013 142 1027 142 1117 c 0
 142 1288 306 1392 366 1392 c 0
 381 1392 390 1385 390 1373 c 0
EndSplineSet
EndChar

StartChar: quotesinglbase
Encoding: 8218 8218 65
Width: 497
VWidth: 0
Flags: W
HStem: -261 434<135 222>
VStem: 237 122<-132.338 22.2186>
LayerCount: 3
Fore
SplineSet
111 -242 m 0
 111 -192 237 -185 237 -58 c 0
 237 44 133 25 133 58 c 0
 133 63 136 69 141 77 c 2
 191 149 l 2
 195 155 210 173 222 173 c 0
 233 173 251 164 281 145 c 0
 324 118 359 104 359 14 c 0
 359 -157 195 -261 135 -261 c 0
 120 -261 111 -254 111 -242 c 0
EndSplineSet
EndChar

StartChar: quotedblleft
Encoding: 8220 8220 66
Width: 869
VWidth: 0
Flags: W
HStem: 958 434<279 366 629 716>
VStem: 142 122<1108.78 1263.34> 492 122<1108.78 1263.34>
LayerCount: 3
Fore
SplineSet
390 1373 m 0
 390 1323 264 1316 264 1189 c 0
 264 1087 368 1106 368 1073 c 0
 368 1068 365 1062 360 1054 c 2
 310 982 l 2
 306 976 291 958 279 958 c 0
 268 958 250 967 220 986 c 0
 177 1013 142 1027 142 1117 c 0
 142 1288 306 1392 366 1392 c 0
 381 1392 390 1385 390 1373 c 0
740 1373 m 0
 740 1323 614 1316 614 1189 c 0
 614 1087 718 1106 718 1073 c 0
 718 1068 715 1062 710 1054 c 2
 660 982 l 2
 656 976 641 958 629 958 c 0
 618 958 600 967 570 986 c 0
 527 1013 492 1027 492 1117 c 0
 492 1288 656 1392 716 1392 c 0
 731 1392 740 1385 740 1373 c 0
EndSplineSet
EndChar

StartChar: quotedblright
Encoding: 8221 8221 67
Width: 869
VWidth: 0
Flags: W
HStem: 958 434<166 253 516 603>
VStem: 268 122<1086.66 1241.22> 618 122<1086.66 1241.22>
LayerCount: 3
Fore
SplineSet
492 977 m 0
 492 1027 618 1034 618 1161 c 0
 618 1263 514 1244 514 1277 c 0
 514 1282 517 1288 522 1296 c 2
 572 1368 l 2
 576 1374 591 1392 603 1392 c 0
 614 1392 632 1383 662 1364 c 0
 705 1337 740 1323 740 1233 c 0
 740 1062 576 958 516 958 c 0
 501 958 492 965 492 977 c 0
142 977 m 0
 142 1027 268 1034 268 1161 c 0
 268 1263 164 1244 164 1277 c 0
 164 1282 167 1288 172 1296 c 2
 222 1368 l 2
 226 1374 241 1392 253 1392 c 0
 264 1392 282 1383 312 1364 c 0
 355 1337 390 1323 390 1233 c 0
 390 1062 226 958 166 958 c 0
 151 958 142 965 142 977 c 0
EndSplineSet
EndChar

StartChar: quotedblbase
Encoding: 8222 8222 68
Width: 869
VWidth: 0
Flags: W
HStem: -261 434<166 253 516 603>
VStem: 268 122<-132.338 22.2186> 618 122<-132.338 22.2186>
LayerCount: 3
Fore
SplineSet
492 -242 m 0
 492 -192 618 -185 618 -58 c 0
 618 44 514 25 514 58 c 0
 514 63 517 69 522 77 c 2
 572 149 l 2
 576 155 591 173 603 173 c 0
 614 173 632 164 662 145 c 0
 705 118 740 104 740 14 c 0
 740 -157 576 -261 516 -261 c 0
 501 -261 492 -254 492 -242 c 0
142 -242 m 0
 142 -192 268 -185 268 -58 c 0
 268 44 164 25 164 58 c 0
 164 63 167 69 172 77 c 2
 222 149 l 2
 226 155 241 173 253 173 c 0
 264 173 282 164 312 145 c 0
 355 118 390 104 390 14 c 0
 390 -157 226 -261 166 -261 c 0
 151 -261 142 -254 142 -242 c 0
EndSplineSet
EndChar

StartChar: oe
Encoding: 339 339 69
Width: 1483
VWidth: 0
Flags: W
HStem: -30 80<362.461 596.698> -26 138<1000.2 1290.2> 751 71<315.068 551.165 967.681 1132.06>
VStem: 40 163<237.918 604.18> 703 161<255.25 461.67 535 592.529>
LayerCount: 3
Fore
SplineSet
203 449 m 0xb8
 203 260 307 50 475 50 c 0
 643 50 703 213 703 382 c 0
 703 629 573 751 426 751 c 0
 307 751 203 649 203 449 c 0xb8
40 400 m 0
 40 612 164 822 444 822 c 0
 623 822 744 735 780 612 c 1
 840 744 955 818 1073 818 c 0
 1297 818 1412 626 1412 555 c 0
 1412 532 1388 525 1380 524 c 2
 865 462 l 1
 864 455 864 445 864 435 c 0
 864 229 994 112 1166 112 c 0
 1327 112 1406 209 1440 209 c 0
 1450 209 1457 202 1457 184 c 0
 1457 146 1326 -26 1104 -26 c 0x78
 955 -26 843 28 787 186 c 1
 732 44 601 -30 449 -30 c 0
 172 -30 40 193 40 400 c 0
870 535 m 1
 1222 580 l 1
 1222 580 1166 747 1053 747 c 0
 972 747 892 671 870 535 c 1
EndSplineSet
Layer: 2
SplineSet
203 449 m 0
 203 260 307 50 475 50 c 0
 643 50 703 213 703 382 c 0
 703 629 573 751 426 751 c 0
 307 751 203 649 203 449 c 0
40 400 m 0
 40 612 164 822 444 822 c 0
 623 822 734 747 781 646 c 1
 839 747 955 818 1073 818 c 0
 1297 818 1412 626 1412 555 c 0
 1412 532 1388 525 1380 524 c 2
 865 462 l 1
 864 455 864 445 864 435 c 0
 864 229 994 112 1166 112 c 0
 1327 112 1406 209 1440 209 c 0
 1450 209 1457 202 1457 184 c 0
 1457 146 1306 -26 1084 -26 c 0
 935 -26 837 45 788 135 c 1
 726 39 601 -30 449 -30 c 0
 172 -30 40 193 40 400 c 0
870 535 m 1
 1222 580 l 1
 1222 580 1166 747 1053 747 c 0
 972 747 892 671 870 535 c 1
EndSplineSet
EndChar

StartChar: ae
Encoding: 230 230 70
Width: 1274
VWidth: 0
Flags: W
HStem: -32 116<212.612 427.896> -26 138<784.977 1058.14> 391 55<387.752 517> 714 99<237.116 479.911> 747 71<743.862 919.04>
VStem: 50 148<101.683 253.809> 103 111<513.552 650.27> 518 132<250.234 391 446 467 540 652.668>
LayerCount: 3
Fore
SplineSet
198 181 m 0xa5
 198 113 253 84 306 84 c 0
 476 84 550 207 550 207 c 1
 535 264 523 323 519 391 c 1
 349 390 198 271 198 181 c 0xa5
409 813 m 0xb3
 578 813 598 679 612 628 c 1
 644 728 748 818 860 818 c 0
 1063 818 1189 639 1189 555 c 0
 1189 532 1165 525 1157 524 c 2
 650 467 l 1
 649 460 649 445 649 435 c 0
 649 229 776 112 948 112 c 0
 1109 112 1183 199 1217 199 c 0
 1227 199 1234 192 1234 174 c 0
 1234 136 1088 -26 866 -26 c 0x6b
 728 -26 623 60 570 161 c 1
 570 161 482 -32 255 -32 c 0
 169 -32 50 13 50 123 c 0xa5
 50 308 285 446 517 446 c 1
 517 469 518 493 518 516 c 0
 518 622 505 714 360 714 c 0
 216 714 195 652 195 652 c 1
 203 615 214 584 214 562 c 0
 214 530 166 508 149 508 c 0
 108 508 103 558 103 582 c 0
 103 651 199 813 409 813 c 0xb3
657 540 m 1
 999 580 l 1
 999 580 956 747 835 747 c 0
 754 747 679 676 657 540 c 1
EndSplineSet
Layer: 2
SplineSet
198 181 m 4
 198 113 253 84 306 84 c 4
 476 84 540 207 540 207 c 5
 525 264 513 323 509 391 c 5
 339 390 198 271 198 181 c 4
860 818 m 4
 1063 818 1189 639 1189 555 c 4
 1189 532 1165 525 1157 524 c 6
 650 467 l 5
 649 460 649 445 649 435 c 4
 649 229 776 112 948 112 c 4
 1109 112 1183 199 1217 199 c 4
 1227 199 1234 192 1234 174 c 4
 1234 136 1088 -26 866 -26 c 4
 697 -26 613 60 560 161 c 5
 560 161 482 -32 255 -32 c 4
 169 -32 50 13 50 123 c 4
 50 308 275 446 507 446 c 5
 507 570 l 6
 507 649 484 714 360 714 c 4
 216 714 195 652 195 652 c 5
 203 615 214 584 214 562 c 4
 214 530 166 508 149 508 c 4
 108 508 103 558 103 582 c 4
 103 651 199 813 409 813 c 4
 573 813 609 709 621 669 c 5
 662 744 748 818 860 818 c 4
657 540 m 5
 999 580 l 5
 999 580 956 747 835 747 c 4
 754 747 679 676 657 540 c 5
EndSplineSet
EndChar

StartChar: f_i
Encoding: 65537 -1 71
Width: 976
Flags: W
HStem: 0 65<50 181.996 329.244 476 540 668.647 815.059 938> 704 98<59 184 328 666.875> 812 20G<760 814> 1406 78<414.625 629.5>
VStem: 184 144<67.2279 704 802 1257.34> 670 144<68.4172 701.742>
LayerCount: 3
Fore
SplineSet
185 1066 m 2
 185 1281 343 1484 579 1484 c 0
 680 1484 774 1452 774 1403 c 0
 774 1362 711 1290 663 1290 c 0
 637 1290 582 1406 489 1406 c 0
 365 1406 327 1212 327 1094 c 2
 327 802 l 1
 555 802 l 2
 616 802 706 803 814 832 c 1
 814 120 l 2
 814 54 828 68 938 65 c 1
 938 0 l 1
 540 0 l 1
 540 65 l 1
 633 70 670 58 670 113 c 2
 670 630 l 2
 670 704 669 704 537 704 c 2
 328 704 l 1
 328 123 l 2
 328 56 339 69 476 65 c 1
 476 0 l 1
 50 0 l 1
 50 65 l 1
 152 69 184 54 184 120 c 2
 184 704 l 1
 35 704 l 1
 59 802 l 1
 185 802 l 1
 185 1066 l 2
EndSplineSet
Ligature2: "'liga' Standard Ligatures in Latin lookup 7 subtable" f i
LCarets2: 1 0 
EndChar

StartChar: f_l
Encoding: 65538 -1 72
Width: 1002
VWidth: 0
Flags: W
HStem: 0 65<55 182.265 329.641 473 535 665.33 813.508 948> 704 98<59 184 328 534> 1398 85<398.269 575.5>
VStem: 184 144<67.7139 704 802 1271.11> 668 144<67.4204 1320>
LayerCount: 3
Fore
SplineSet
35 704 m 1
 59 802 l 1
 185 802 l 1
 185 1023 l 2
 185 1136 190 1320 385 1440 c 0
 434 1470 496 1483 554 1483 c 0
 597 1483 637 1476 666 1463 c 1
 715 1470 763 1477 812 1486 c 1
 812 120 l 2
 812 60 828 67 948 65 c 1
 949 0 l 1
 532 0 l 1
 535 65 l 1
 633 66 668 59 668 121 c 2
 668 1320 l 1
 640 1296 630 1276 607 1276 c 0
 572 1276 556 1398 481 1398 c 0
 336 1398 327 1131 327 1074 c 2
 327 802 l 1
 558 802 l 1
 534 704 l 1
 328 704 l 1
 328 128 l 2
 328 57 336 69 473 65 c 1
 476 0 l 1
 54 0 l 1
 55 65 l 1
 157 69 184 54 184 120 c 2
 184 704 l 1
 35 704 l 1
EndSplineSet
Ligature2: "'liga' Standard Ligatures in Latin lookup 7 subtable" f l
LCarets2: 1 0 
EndChar

StartChar: f_f
Encoding: 65539 -1 73
Width: 1082
VWidth: 0
Flags: W
HStem: 0 65<49 181.942 329.088 467 538 662.372 810.564 963> 704 98<59 184 328 664 808 1014> 1345 85<399.98 587.382> 1398 85<878.171 1076.5>
VStem: 184 144<67.267 704 802 1232.59> 664 144<68.4003 704 802 1260.92>
LayerCount: 3
Fore
SplineSet
749 1337 m 1xec
 853 1475 983 1483 1034 1483 c 0
 1119 1483 1193 1455 1193 1408 c 0
 1193 1375 1128 1276 1087 1276 c 0
 1052 1276 1036 1398 961 1398 c 0xdc
 816 1398 807 1131 807 1074 c 2
 807 802 l 1
 1038 802 l 1
 1014 704 l 1
 808 704 l 1
 808 128 l 2
 808 57 826 69 963 65 c 1
 963 0 l 1
 538 0 l 1
 537 65 l 1
 639 69 664 54 664 120 c 2
 664 704 l 1
 328 704 l 1
 328 128 l 2
 328 57 330 69 467 65 c 1
 468 0 l 1
 49 0 l 1
 49 65 l 1
 151 69 184 54 184 120 c 2
 184 704 l 1
 35 704 l 1
 59 802 l 1
 185 802 l 1
 185 965 l 2
 185 1128 203 1269 327 1352 c 0
 428 1420 513 1430 582 1430 c 0
 682 1430 753 1400 753 1355 c 0
 753 1350 751 1344 749 1337 c 1xec
706 1265 m 1
 687 1242 665 1223 647 1223 c 0
 612 1223 610 1345 501 1345 c 0xec
 337 1345 327 1139 327 954 c 2
 327 802 l 1
 665 802 l 1
 665 1023 l 2
 665 1088 667 1178 706 1265 c 1
EndSplineSet
Layer: 2
SplineSet
501 1345 m 4
 337 1345 327 1139 327 954 c 6
 327 802 l 5
 665 802 l 5
 665 1023 l 6
 665 1136 670 1320 865 1440 c 4
 914 1470 976 1483 1034 1483 c 4
 1119 1483 1193 1455 1193 1408 c 4
 1193 1375 1128 1276 1087 1276 c 4
 1052 1276 1036 1398 961 1398 c 4
 816 1398 807 1131 807 1074 c 6
 807 802 l 5
 1038 802 l 5
 1014 704 l 5
 808 704 l 5
 808 128 l 6
 808 57 826 69 963 65 c 5
 963 0 l 5
 538 0 l 5
 537 65 l 5
 639 69 664 54 664 120 c 6
 664 704 l 5
 328 704 l 5
 328 128 l 6
 328 57 330 69 467 65 c 5
 468 0 l 5
 49 0 l 5
 49 65 l 5
 151 69 184 54 184 120 c 6
 184 704 l 5
 35 704 l 5
 59 802 l 5
 185 802 l 5
 185 965 l 6
 185 1161 209 1319 412 1396 c 4
 481 1423 516 1430 574 1430 c 4
 659 1430 733 1402 733 1355 c 4
 733 1322 668 1223 627 1223 c 4
 592 1223 576 1345 501 1345 c 4
EndSplineSet
Ligature2: "'liga' Standard Ligatures in Latin lookup 7 subtable" f f
LCarets2: 1 0 
EndChar

StartChar: f_f_i
Encoding: 65540 -1 74
Width: 1454
VWidth: 0
Flags: W
HStem: 0 65<49 181.942 329.088 467 530 661.996 809.747 956 1020 1148.65 1295.06 1418> 704 98<59 184 328 664 808 1146.88> 812 20G<1240 1294> 1345 85<396.426 642> 1406 78<890.503 1109.5>
VStem: 184 144<67.267 704 802 1232.59> 664 144<67.2986 704 802 1251.86> 1150 144<68.4172 701.742>
LayerCount: 3
Fore
SplineSet
1143 1290 m 0xef
 1117 1290 1061 1406 970 1406 c 0xef
 840 1406 807 1209 807 1074 c 2
 807 802 l 1
 1035 802 l 2
 1096 802 1186 803 1294 832 c 1
 1294 120 l 2
 1294 54 1308 68 1418 65 c 1
 1418 0 l 1
 1020 0 l 1
 1020 65 l 1
 1113 70 1150 58 1150 113 c 2
 1150 630 l 2
 1150 704 1149 704 1017 704 c 2
 808 704 l 1
 808 128 l 2
 808 57 817 68 956 65 c 1
 956 0 l 1
 530 0 l 1
 530 65 l 1
 632 68 664 54 664 120 c 2
 664 704 l 1
 328 704 l 1
 328 128 l 2
 328 57 330 69 467 65 c 1
 468 0 l 1
 49 0 l 1
 49 65 l 1
 151 69 184 54 184 120 c 2
 184 704 l 1
 35 704 l 1
 59 802 l 1
 185 802 l 1
 185 965 l 2
 185 1128 203 1269 327 1352 c 0
 428 1420 523 1430 592 1430 c 0xf7
 692 1430 763 1400 763 1355 c 0
 763 1350 761 1344 759 1337 c 1
 863 1475 1007 1484 1059 1484 c 0
 1160 1484 1254 1452 1254 1403 c 0
 1254 1362 1191 1290 1143 1290 c 0xef
653 1223 m 0
 613 1223 598 1345 496 1345 c 0xf7
 332 1345 327 1139 327 954 c 2
 327 802 l 1
 665 802 l 1
 665 1038 l 2
 665 1099 667 1167 712 1265 c 1
 693 1242 671 1223 653 1223 c 0
EndSplineSet
Layer: 2
SplineSet
328 704 m 5
 328 128 l 6
 328 57 330 69 467 65 c 5
 468 0 l 5
 49 0 l 5
 49 65 l 5
 151 69 184 54 184 120 c 6
 184 704 l 5
 35 704 l 5
 59 802 l 5
 185 802 l 5
 185 965 l 6
 185 1161 209 1319 412 1396 c 4
 481 1423 516 1430 574 1430 c 4
 659 1430 733 1402 733 1355 c 4
 733 1322 668 1223 627 1223 c 4
 592 1223 576 1345 501 1345 c 4
 337 1345 327 1139 327 954 c 6
 327 802 l 5
 665 802 l 5
 665 1066 l 6
 665 1281 823 1484 1059 1484 c 4
 1160 1484 1254 1452 1254 1403 c 4
 1254 1362 1191 1290 1143 1290 c 4
 1117 1290 1062 1406 969 1406 c 4
 845 1406 807 1212 807 1094 c 6
 807 802 l 5
 1035 802 l 6
 1096 802 1186 803 1294 832 c 5
 1294 120 l 6
 1294 54 1308 68 1418 65 c 5
 1418 0 l 5
 1020 0 l 5
 1020 65 l 5
 1113 70 1150 58 1150 113 c 6
 1150 630 l 6
 1150 704 1149 704 1017 704 c 6
 808 704 l 5
 808 123 l 6
 808 56 819 69 956 65 c 5
 956 0 l 5
 530 0 l 5
 530 65 l 5
 632 69 664 54 664 120 c 6
 664 704 l 5
 328 704 l 5
EndSplineSet
Ligature2: "'liga' Standard Ligatures in Latin lookup 7 subtable" f f i
LCarets2: 2 0 0 
EndChar

StartChar: f_f_l
Encoding: 65541 -1 75
Width: 1484
VWidth: 0
Flags: W
HStem: 0 65<49 181.942 329.088 467 535 662.805 809.641 953 1015 1145.33 1293.51 1428> 704 98<59 184 328 664 808 1014> 1345 85<399.98 587.382> 1398 85<879.121 1055.5>
VStem: 184 144<67.267 704 802 1232.59> 664 144<67.6193 704 802 1263.9> 1148 144<67.4204 1320>
LayerCount: 3
Fore
SplineSet
749 1337 m 1xee
 789 1392 884 1483 1034 1483 c 0
 1077 1483 1117 1476 1146 1463 c 1
 1195 1470 1243 1477 1292 1486 c 1
 1292 120 l 2
 1292 60 1308 67 1428 65 c 1
 1429 0 l 1
 1012 0 l 1
 1015 65 l 1
 1113 66 1148 59 1148 121 c 2
 1148 1320 l 1
 1120 1296 1110 1276 1087 1276 c 0
 1052 1276 1036 1398 961 1398 c 0xde
 816 1398 807 1131 807 1074 c 2
 807 802 l 1
 1038 802 l 1
 1014 704 l 1
 808 704 l 1
 808 128 l 2
 808 57 816 69 953 65 c 1
 956 0 l 1
 534 0 l 1
 535 65 l 1
 641 67 664 56 664 117 c 2
 664 704 l 1
 328 704 l 1
 328 128 l 2
 328 57 330 69 467 65 c 1
 468 0 l 1
 49 0 l 1
 49 65 l 1
 151 69 184 54 184 120 c 2
 184 704 l 1
 35 704 l 1
 59 802 l 1
 185 802 l 1
 185 965 l 2
 185 1128 203 1269 327 1352 c 0
 428 1420 513 1430 582 1430 c 0
 682 1430 753 1400 753 1355 c 0
 753 1350 751 1344 749 1337 c 1xee
706 1265 m 1
 687 1242 665 1223 647 1223 c 0
 612 1223 610 1345 501 1345 c 0xee
 337 1345 327 1139 327 954 c 2
 327 802 l 1
 665 802 l 1
 665 1023 l 2
 665 1193 699 1242 706 1265 c 1
EndSplineSet
Layer: 2
SplineSet
665 802 m 5
 665 1023 l 6
 665 1136 670 1320 865 1440 c 4
 914 1470 976 1483 1034 1483 c 4
 1077 1483 1117 1476 1146 1463 c 5
 1195 1470 1243 1477 1292 1486 c 5
 1292 120 l 6
 1292 60 1308 67 1428 65 c 5
 1429 0 l 5
 1012 0 l 5
 1015 65 l 5
 1113 66 1148 59 1148 121 c 6
 1148 1320 l 5
 1120 1296 1110 1276 1087 1276 c 4
 1052 1276 1036 1398 961 1398 c 4
 816 1398 807 1131 807 1074 c 6
 807 802 l 5
 1038 802 l 5
 1014 704 l 5
 808 704 l 5
 808 128 l 6
 808 57 816 69 953 65 c 5
 956 0 l 5
 534 0 l 5
 535 65 l 5
 637 69 664 54 664 120 c 6
 664 704 l 5
 328 704 l 5
 328 128 l 6
 328 57 330 69 467 65 c 5
 468 0 l 5
 49 0 l 5
 49 65 l 5
 151 69 184 54 184 120 c 6
 184 704 l 5
 35 704 l 5
 59 802 l 5
 185 802 l 5
 185 965 l 6
 185 1161 209 1319 412 1396 c 4
 481 1423 516 1430 574 1430 c 4
 659 1430 733 1402 733 1355 c 4
 733 1322 668 1223 627 1223 c 4
 592 1223 576 1345 501 1345 c 4
 337 1345 327 1139 327 954 c 6
 327 802 l 5
 665 802 l 5
EndSplineSet
Ligature2: "'liga' Standard Ligatures in Latin lookup 7 subtable" f f l
LCarets2: 2 0 0 
EndChar

StartChar: f_j
Encoding: 65542 -1 76
Width: 1024
Flags: W
HStem: -534 92<478 634.898> 0 65<50 181.996 329.244 476> 704 98<59 184 328 666.875> 812 20G<760 814> 1406 78<414.625 629.5>
VStem: 184 144<67.2279 704 802 1257.34> 670 144<-368.625 701.742>
LayerCount: 3
Fore
SplineSet
814 -99 m 2
 814 -326 767 -403 698 -454 c 0
 697 -455 600 -534 513 -534 c 0
 443 -534 353 -484 353 -454 c 0
 353 -412 418 -354 464 -354 c 0
 495 -354 543 -442 575 -442 c 0
 644 -442 670 -339 670 -164 c 2
 670 630 l 2
 670 704 669 704 537 704 c 2
 328 704 l 1
 328 123 l 2
 328 56 339 69 476 65 c 1
 476 0 l 1
 50 0 l 1
 50 65 l 1
 152 69 184 54 184 120 c 2
 184 704 l 1
 35 704 l 1
 59 802 l 1
 185 802 l 1
 185 1066 l 2
 185 1281 343 1484 579 1484 c 0
 680 1484 774 1452 774 1403 c 0
 774 1362 711 1290 663 1290 c 0
 637 1290 582 1406 489 1406 c 0
 365 1406 327 1212 327 1094 c 2
 327 802 l 1
 555 802 l 2
 616 802 706 803 814 832 c 1
 814 -99 l 2
EndSplineSet
Ligature2: "'liga' Standard Ligatures in Latin lookup 7 subtable" f j
LCarets2: 1 0 
EndChar

StartChar: f_f_j
Encoding: 65543 -1 77
Width: 1476
Flags: W
HStem: -534 92<958 1114.9> 0 65<49 181.942 329.088 467 530 661.996 809.747 956> 704 98<59 184 328 664 808 1146.88> 812 20G<1240 1294> 1345 85<396.426 642> 1406 78<890.503 1109.5>
VStem: 184 144<67.267 704 802 1232.59> 664 144<67.2986 704 802 1251.86> 1150 144<-368.625 701.742>
LayerCount: 3
Fore
SplineSet
496 1345 m 0xfb80
 332 1345 327 1139 327 954 c 2
 327 802 l 1
 665 802 l 1
 665 1038 l 2
 665 1099 667 1167 712 1265 c 1
 693 1242 671 1223 653 1223 c 0
 613 1223 598 1345 496 1345 c 0xfb80
1035 802 m 2
 1096 802 1186 803 1294 832 c 1
 1294 -99 l 2
 1294 -326 1247 -403 1178 -454 c 0
 1177 -455 1080 -534 993 -534 c 0
 923 -534 833 -484 833 -454 c 0
 833 -412 898 -354 944 -354 c 0
 975 -354 1023 -442 1055 -442 c 0
 1124 -442 1150 -339 1150 -164 c 2
 1150 630 l 2
 1150 704 1149 704 1017 704 c 2
 808 704 l 1
 808 128 l 2
 808 57 817 68 956 65 c 1
 956 0 l 1
 530 0 l 1
 530 65 l 1
 632 68 664 54 664 120 c 2
 664 704 l 1
 328 704 l 1
 328 128 l 2
 328 57 330 69 467 65 c 1
 468 0 l 1
 49 0 l 1
 49 65 l 1
 151 69 184 54 184 120 c 2
 184 704 l 1
 35 704 l 1
 59 802 l 1
 185 802 l 1
 185 965 l 2
 185 1128 203 1269 327 1352 c 0
 428 1420 523 1430 592 1430 c 0xfb80
 692 1430 763 1400 763 1355 c 0
 763 1350 761 1344 759 1337 c 1
 863 1475 1007 1484 1059 1484 c 0
 1160 1484 1254 1452 1254 1403 c 0
 1254 1362 1191 1290 1143 1290 c 0
 1117 1290 1061 1406 970 1406 c 0xf780
 840 1406 807 1209 807 1074 c 2
 807 802 l 1
 1035 802 l 2
EndSplineSet
Ligature2: "'liga' Standard Ligatures in Latin lookup 7 subtable" f f j
LCarets2: 2 0 0 
EndChar

StartChar: f_b
Encoding: 65544 -1 78
Width: 1552
Flags: W
HStem: -19 74<883.635 1187.38> 0 65<55 182.265 329.641 473> 704 98<59 184 328 534> 706 112<932.528 1192.91> 1398 85<398.269 575.5>
VStem: 184 144<67.7139 704 802 1271.11> 668 144<110.615 659.166 689 1320> 1327 149<233.539 563.75>
LayerCount: 3
Fore
SplineSet
812 1486 m 1x6f
 812 689 l 1
 842 711 946 818 1100 818 c 0
 1357 818 1476 632 1476 435 c 0
 1476 214 1325 -19 1053 -19 c 0x9f
 912 -19 809 43 778 43 c 0
 748 43 715 -4 685 -4 c 0
 675 -4 662 8 662 44 c 0
 662 72 668 155 668 318 c 2
 668 1320 l 1
 640 1296 630 1276 607 1276 c 0
 572 1276 556 1398 481 1398 c 0
 336 1398 327 1131 327 1074 c 2
 327 802 l 1
 558 802 l 1
 534 704 l 1
 328 704 l 1
 328 128 l 2
 328 57 336 69 473 65 c 1
 476 0 l 1
 54 0 l 1
 55 65 l 1
 157 69 184 54 184 120 c 2
 184 704 l 1
 35 704 l 1
 59 802 l 1
 185 802 l 1
 185 1023 l 2
 185 1136 190 1320 385 1440 c 0
 434 1470 496 1483 554 1483 c 0
 597 1483 637 1476 666 1463 c 1
 715 1470 763 1477 812 1486 c 1x6f
812 200 m 2
 812 101 931 55 1031 55 c 0
 1144 55 1327 100 1327 360 c 0
 1327 681 1102 706 1048 706 c 0
 897 706 812 630 812 630 c 1
 812 200 l 2
EndSplineSet
Ligature2: "'liga' Standard Ligatures in Latin lookup 7 subtable" f b
LCarets2: 1 0 
EndChar

StartChar: f_f_b
Encoding: 65545 -1 79
Width: 2046
Flags: W
HStem: -19 74<1363.63 1667.38> 0 65<49 181.942 329.088 467 535 662.805 809.641 953> 704 98<59 184 328 664 808 1014> 706 112<1412.53 1672.91> 1345 85<399.98 587.382> 1398 85<879.121 1055.5>
VStem: 184 144<67.267 704 802 1232.59> 664 144<67.6193 704 802 1263.9> 1148 144<110.615 659.166 689 1320> 1807 149<233.539 563.75>
LayerCount: 3
Fore
SplineSet
1148 1320 m 1x97c0
 1120 1296 1110 1276 1087 1276 c 0
 1052 1276 1036 1398 961 1398 c 0x97c0
 816 1398 807 1131 807 1074 c 2
 807 802 l 1
 1038 802 l 1
 1014 704 l 1
 808 704 l 1
 808 128 l 2
 808 57 816 69 953 65 c 1
 956 0 l 1
 534 0 l 1
 535 65 l 1
 641 67 664 56 664 117 c 2
 664 704 l 1
 328 704 l 1
 328 128 l 2
 328 57 330 69 467 65 c 1
 468 0 l 1
 49 0 l 1
 49 65 l 1
 151 69 184 54 184 120 c 2
 184 704 l 1
 35 704 l 1
 59 802 l 1
 185 802 l 1
 185 965 l 2
 185 1128 203 1269 327 1352 c 0
 428 1420 513 1430 582 1430 c 0x6bc0
 682 1430 753 1400 753 1355 c 0
 753 1350 751 1344 749 1337 c 1
 789 1392 884 1483 1034 1483 c 0
 1077 1483 1117 1476 1146 1463 c 1
 1195 1470 1243 1477 1292 1486 c 1
 1292 689 l 1
 1322 711 1426 818 1580 818 c 0
 1837 818 1956 632 1956 435 c 0
 1956 214 1805 -19 1533 -19 c 0
 1392 -19 1289 43 1258 43 c 0
 1228 43 1195 -4 1165 -4 c 0
 1155 -4 1142 8 1142 44 c 0
 1142 72 1148 155 1148 318 c 2
 1148 1320 l 1x97c0
1292 200 m 2
 1292 101 1411 55 1511 55 c 0
 1624 55 1807 100 1807 360 c 0
 1807 681 1582 706 1528 706 c 0
 1377 706 1292 630 1292 630 c 1
 1292 200 l 2
706 1265 m 1
 687 1242 665 1223 647 1223 c 0
 612 1223 610 1345 501 1345 c 0
 337 1345 327 1139 327 954 c 2
 327 802 l 1
 665 802 l 1x2bc0
 665 1023 l 2
 665 1193 699 1242 706 1265 c 1
EndSplineSet
Ligature2: "'liga' Standard Ligatures in Latin lookup 7 subtable" f f b
LCarets2: 2 0 0 
EndChar

StartChar: f_h
Encoding: 65546 -1 80
Width: 1496
Flags: W
HStem: 0 65<55 182.265 329.641 473 552 666.377 813.434 953 1038 1164.43 1312.27 1431> 704 98<59 184 328 534 949.821 1123.58> 1398 85<398.269 575.5>
VStem: 184 144<67.7139 704 802 1271.11> 668 144<68.524 628.855 658 1320> 1167 144<67.5664 655.289>
LayerCount: 3
Fore
SplineSet
668 1320 m 1
 640 1296 630 1276 607 1276 c 0
 572 1276 556 1398 481 1398 c 0
 336 1398 327 1131 327 1074 c 2
 327 802 l 1
 558 802 l 1
 534 704 l 1
 328 704 l 1
 328 128 l 2
 328 57 336 69 473 65 c 1
 476 0 l 1
 54 0 l 1
 55 65 l 1
 157 69 184 54 184 120 c 2
 184 704 l 1
 35 704 l 1
 59 802 l 1
 185 802 l 1
 185 1023 l 2
 185 1136 190 1320 385 1440 c 0
 434 1470 496 1483 554 1483 c 0
 597 1483 637 1476 666 1463 c 1
 715 1470 763 1477 812 1486 c 1
 812 658 l 1
 866 701 983 809 1115 809 c 0
 1308 809 1311 642 1311 480 c 2
 1311 124 l 2
 1311 57 1320 67 1431 65 c 1
 1431 0 l 1
 1038 0 l 1
 1036 65 l 1
 1141 67 1167 60 1167 122 c 2
 1167 539 l 2
 1167 660 1090 695 1028 695 c 0
 924 695 812 595 812 595 c 1
 812 113 l 2
 812 56 851 71 955 65 c 1
 953 0 l 1
 552 0 l 1
 551 65 l 1
 634 67 668 62 668 113 c 2
 668 1320 l 1
EndSplineSet
Ligature2: "'liga' Standard Ligatures in Latin lookup 7 subtable" f h
LCarets2: 1 0 
EndChar

StartChar: f_f_h
Encoding: 65547 -1 81
Width: 1972
Flags: W
HStem: 0 65<49 181.942 329.088 467 535 662.805 809.641 953 1027 1147.4 1293.43 1433 1518 1644.43 1792.27 1911> 704 98<59 184 328 664 808 1014 1429.82 1603.58> 1345 85<399.98 587.382> 1398 85<879.121 1055.5>
VStem: 184 144<67.267 704 802 1232.59> 664 144<67.6193 704 802 1263.9> 1148 144<68.5299 628.855 658 1320> 1647 144<67.5664 655.289>
LayerCount: 3
Fore
SplineSet
1148 1320 m 1xdf
 1120 1296 1110 1276 1087 1276 c 0
 1052 1276 1036 1398 961 1398 c 0xdf
 816 1398 807 1131 807 1074 c 2
 807 802 l 1
 1038 802 l 1
 1014 704 l 1
 808 704 l 1
 808 128 l 2
 808 57 816 69 953 65 c 1
 956 0 l 1
 534 0 l 1
 535 65 l 1
 641 67 664 56 664 117 c 2
 664 704 l 1
 328 704 l 1
 328 128 l 2
 328 57 330 69 467 65 c 1
 468 0 l 1
 49 0 l 1
 49 65 l 1
 151 69 184 54 184 120 c 2
 184 704 l 1
 35 704 l 1
 59 802 l 1
 185 802 l 1
 185 965 l 2
 185 1128 203 1269 327 1352 c 0
 428 1420 513 1430 582 1430 c 0xef
 682 1430 753 1400 753 1355 c 0
 753 1350 751 1344 749 1337 c 1
 789 1392 884 1483 1034 1483 c 0
 1077 1483 1117 1476 1146 1463 c 1
 1195 1470 1243 1477 1292 1486 c 1
 1292 658 l 1
 1346 701 1463 809 1595 809 c 0
 1788 809 1791 642 1791 480 c 2
 1791 124 l 2
 1791 57 1800 67 1911 65 c 1
 1911 0 l 1
 1518 0 l 1
 1516 65 l 1
 1621 67 1647 60 1647 122 c 2
 1647 539 l 2
 1647 660 1570 695 1508 695 c 0
 1404 695 1292 595 1292 595 c 1
 1292 113 l 2
 1292 56 1331 71 1435 65 c 1
 1433 0 l 1
 1027 0 l 1
 1026 65 l 1
 1116 67 1148 57 1148 108 c 2
 1148 1320 l 1xdf
706 1265 m 1
 687 1242 665 1223 647 1223 c 0
 612 1223 610 1345 501 1345 c 0xef
 337 1345 327 1139 327 954 c 2
 327 802 l 1
 665 802 l 1
 665 1023 l 2
 665 1193 699 1242 706 1265 c 1
EndSplineSet
Ligature2: "'liga' Standard Ligatures in Latin lookup 7 subtable" f f h
LCarets2: 2 0 0 
EndChar

StartChar: f_k
Encoding: 65548 -1 82
Width: 1536
VWidth: 0
Flags: W
HStem: 0 65<55 182.265 329.641 473 556 667.533 808.419 969 1308.99 1440> 704 98<59 184 328 534> 747 55<1095 1199.98 1305.46 1423> 1398 85<398.269 575.5>
VStem: 184 144<67.7139 704 802 1271.11> 668 144<67.0248 338 410 1320>
LayerCount: 3
Fore
SplineSet
668 1320 m 1xbc
 640 1296 630 1276 607 1276 c 0
 572 1276 556 1398 481 1398 c 0
 336 1398 327 1131 327 1074 c 2
 327 802 l 1
 558 802 l 1xbc
 534 704 l 1
 328 704 l 1
 328 128 l 2
 328 57 336 69 473 65 c 1
 476 0 l 1
 54 0 l 1
 55 65 l 1
 157 69 184 54 184 120 c 2
 184 704 l 1
 35 704 l 1
 59 802 l 1xdc
 185 802 l 1
 185 1023 l 2
 185 1136 190 1320 385 1440 c 0
 434 1470 496 1483 554 1483 c 0
 597 1483 637 1476 666 1463 c 1
 715 1470 763 1477 812 1486 c 1
 812 410 l 1
 1185 714 l 2
 1196 723 1200 729 1200 734 c 0
 1200 746 1174 748 1157 748 c 0
 1140 748 1119 747 1095 747 c 1
 1095 802 l 1
 1425 802 l 1
 1423 747 l 1
 1362 746 1345 753 1281 702 c 2
 990 471 l 1
 1295 114 l 2
 1334 69 1326 65 1387 65 c 2
 1441 65 l 1
 1440 0 l 1
 1198 0 l 1
 879 393 l 1
 807 338 l 1
 807 116 l 2
 807 59 826 67 969 65 c 1
 971 0 l 1
 556 0 l 1
 555 65 l 1
 658 66 668 59 668 111 c 2
 668 1320 l 1xbc
EndSplineSet
Ligature2: "'liga' Standard Ligatures in Latin lookup 7 subtable" f k
LCarets2: 1 0 
EndChar

StartChar: f_f_k
Encoding: 65549 -1 83
Width: 1984
Flags: W
HStem: 0 65<49 181.942 329.088 467 535 662.805 809.641 953 1031 1147.37 1288.42 1449 1788.99 1920> 704 98<59 184 328 664 808 1014> 747 55<1575 1679.98 1785.46 1903> 1345 85<399.98 587.382> 1398 85<879.121 1055.5>
VStem: 184 144<67.267 704 802 1232.59> 664 144<67.6193 704 802 1263.9> 1148 144<67.0248 338 410 1320>
LayerCount: 3
Fore
SplineSet
1148 1320 m 1xaf
 1120 1296 1110 1276 1087 1276 c 0
 1052 1276 1036 1398 961 1398 c 0
 816 1398 807 1131 807 1074 c 2
 807 802 l 1
 1038 802 l 1xaf
 1014 704 l 1
 808 704 l 1
 808 128 l 2
 808 57 816 69 953 65 c 1
 956 0 l 1
 534 0 l 1
 535 65 l 1
 641 67 664 56 664 117 c 2
 664 704 l 1
 328 704 l 1
 328 128 l 2
 328 57 330 69 467 65 c 1
 468 0 l 1
 49 0 l 1
 49 65 l 1
 151 69 184 54 184 120 c 2
 184 704 l 1
 35 704 l 1
 59 802 l 1xc7
 185 802 l 1
 185 965 l 2
 185 1128 203 1269 327 1352 c 0
 428 1420 513 1430 582 1430 c 0xb7
 682 1430 753 1400 753 1355 c 0
 753 1350 751 1344 749 1337 c 1
 789 1392 884 1483 1034 1483 c 0
 1077 1483 1117 1476 1146 1463 c 1
 1195 1470 1243 1477 1292 1486 c 1
 1292 410 l 1
 1665 714 l 2
 1676 723 1680 729 1680 734 c 0
 1680 746 1654 748 1637 748 c 0
 1620 748 1599 747 1575 747 c 1
 1575 802 l 1
 1905 802 l 1
 1903 747 l 1
 1842 746 1825 753 1761 702 c 2
 1470 471 l 1
 1775 114 l 2
 1814 69 1806 65 1867 65 c 2
 1921 65 l 1
 1920 0 l 1
 1678 0 l 1
 1359 393 l 1
 1287 338 l 1
 1287 116 l 2
 1287 59 1306 67 1449 65 c 1
 1451 0 l 1
 1031 0 l 1
 1030 65 l 1
 1133 66 1148 59 1148 111 c 2
 1148 1320 l 1xaf
706 1265 m 1
 687 1242 665 1223 647 1223 c 0
 612 1223 610 1345 501 1345 c 0xb7
 337 1345 327 1139 327 954 c 2
 327 802 l 1
 665 802 l 1
 665 1023 l 2
 665 1193 699 1242 706 1265 c 1
EndSplineSet
Ligature2: "'liga' Standard Ligatures in Latin lookup 7 subtable" f f k
LCarets2: 2 0 0 
EndChar

StartChar: ampersand
Encoding: 38 38 84
Width: 1708
VWidth: 0
Flags: W
HStem: -41 139<564.476 957.68> -30 158<1358.17 1586.75> 910 80<1010 1258.39 1364.04 1552> 1301 77<412.921 629.239>
VStem: 61 190<356.065 633.101> 191 159<1012.94 1228.71> 692 154<1060.81 1247.77> 1291 99<455.528 884.708>
LayerCount: 3
Fore
SplineSet
1364 885 m 0xb7
 1364 863 1390 865 1390 672 c 0
 1390 465 1244 247 1244 247 c 1
 1332 188 1404 128 1509 128 c 0
 1584 128 1616 150 1642 150 c 0
 1656 150 1664 145 1664 128 c 0
 1664 47 1559 -30 1419 -30 c 0x77
 1312 -30 1124 108 1124 108 c 1
 1124 108 1004 -41 691 -41 c 0
 380 -41 61 124 61 461 c 0xbb
 61 739 326 799 332 802 c 1
 322 811 191 943 191 1077 c 0
 191 1232 317 1378 541 1378 c 0
 700 1378 846 1272 846 1150 c 0
 846 1066 785 963 672 963 c 0
 626 963 558 983 558 1012 c 0
 558 1043 692 1031 692 1141 c 0
 692 1236 609 1301 521 1301 c 0
 434 1301 350 1237 350 1148 c 0
 350 1018 459 919 735 662 c 0
 959 453 1049 393 1113 343 c 2
 1168 300 l 1
 1172 308 1291 457 1291 677 c 0
 1291 736 1289 756 1275 820 c 0
 1254 913 1239 908 1010 910 c 1
 1006 990 l 1
 1552 990 l 1
 1554 910 l 1
 1413 908 1364 914 1364 885 c 0xb7
251 524 m 0xbb
 251 259 551 98 785 98 c 0
 963 98 1039 161 1046 164 c 1
 871 293 l 1
 766.176694772 373.76549747 565.334719335 551.576299376 384 745 c 1
 319 728 251 647 251 524 c 0xbb
EndSplineSet
EndChar

StartChar: m
Encoding: 109 109 85
Width: 1417
VWidth: 0
Flags: HMW
HStem: 0 65<41 178.286 323.147 443 517 641.974 786.024 908 985 1104.23 1249.88 1382> 695 114<455.819 615.606 900.523 1081.41>
VStem: 179 144<66.8788 653.712 675 723.982> 642 144<66.7925 626.953> 1105 144<67.4221 672.965>
LayerCount: 3
Fore
SplineSet
319 675 m 1
 352 693 474 809 609 809 c 0
 731 809 763 692 768 678 c 1
 834 728 946 809 1053 809 c 0
 1238 809 1249 650 1249 538 c 2
 1249 117 l 2
 1249 63 1259 67 1382 65 c 1
 1382 0 l 1
 985 0 l 1
 985 65 l 1
 1092 66 1105 64 1105 113 c 2
 1105 539 l 2
 1105 668 1065 695 981 695 c 0
 856 695 778 627 778 627 c 1
 778 627 786 563 786 480 c 2
 786 98 l 2
 786 60 818 66 908 65 c 1
 908 0 l 1
 517 0 l 1
 515 65 l 1
 607 67 642 61 642 98 c 2
 642 539 l 2
 642 642 607 695 514 695 c 0
 416 695 323 628 323 628 c 1
 323 110 l 2
 323 58 338 67 443 65 c 1
 443 0 l 1
 41 0 l 1
 38 65 l 1
 154 67 179 59 179 110 c 2
 179 616 l 2
 179 700 178 724 146 724 c 0
 125 724 90 714 35 704 c 1
 35 768 l 1
 124 780 323 825 323 825 c 25
 323 825 319 754 319 675 c 1
EndSplineSet
EndChar

StartChar: zero
Encoding: 48 48 86
Width: 1024
VWidth: 0
Flags: W
HStem: -18 89<337.626 658.105> 744 91<330.176 655.51>
VStem: 64 100<246.389 576.478> 826 97<238.28 568.907>
LayerCount: 3
Fore
SplineSet
490 744 m 0
 322 744 164 608 164 412 c 0
 164 238 303 71 502 71 c 0
 666 71 826 207 826 404 c 0
 826 575 691 744 490 744 c 0
64 394 m 0
 64 619 228 835 500 835 c 0
 731 835 923 672 923 426 c 0
 923 189 751 -18 494 -18 c 0
 265 -18 64 146 64 394 c 0
EndSplineSet
AlternateSubs2: "'aalt' Access All Alternates in Latin lookup 0 subtable" zero.lining zero.sub zero.sup zero.denom zero.numer
Substitution2: "lining_figures subtable" zero.lining
Substitution2: "'subs' Subscript in Latin lookup 5 subtable" zero.sub
Substitution2: "'sups' Superscript in Latin lookup 4 subtable" zero.sup
Substitution2: "denominators subtable" zero.denom
Substitution2: "numerators subtable" zero.numer
EndChar

StartChar: one
Encoding: 49 49 87
Width: 688
VWidth: 0
Flags: W
HStem: 0 65<63 255.943 406.113 605> 723 65<68 255.197>
VStem: 258 144<69.2339 721.145> 364 45<800.546 848>
LayerCount: 3
Fore
SplineSet
409 848 m 1xd0
 409 848 402 636 402 441 c 2
 402 128 l 2
 402 51 444 70 605 65 c 1
 605 0 l 1
 63 0 l 1
 63 65 l 1
 249 67 258 56 258 129 c 2
 258 661 l 2xe0
 258 690 258 723 189 723 c 0
 155 723 67 720 67 720 c 1
 68 785 l 1
 280 788 l 2
 356 789 352 810 364 848 c 1
 409 848 l 1xd0
EndSplineSet
Layer: 2
SplineSet
409 857 m 5xd0
 409 857 402 645 402 450 c 6
 402 128 l 6
 402 51 444 70 605 65 c 5
 605 0 l 5
 63 0 l 5
 63 65 l 5
 249 67 258 56 258 129 c 6
 258 675 l 6xe0
 258 704 258 738 189 738 c 4
 155 738 67 737 67 737 c 5
 68 797 l 5
 280 797 l 6
 356 797 352 819 364 857 c 5
 409 857 l 5xd0
EndSplineSet
AlternateSubs2: "'aalt' Access All Alternates in Latin lookup 0 subtable" one.lining one.sub one.sup one.denom one.numer
Substitution2: "lining_figures subtable" one.lining
Substitution2: "'subs' Subscript in Latin lookup 5 subtable" one.sub
Substitution2: "'sups' Superscript in Latin lookup 4 subtable" one.sup
Substitution2: "denominators subtable" one.denom
Substitution2: "numerators subtable" one.numer
EndChar

StartChar: two
Encoding: 50 50 88
Width: 1058
VWidth: 0
Flags: W
HStem: -0 86<310.007 685.599> 740 95<276.135 534.989>
VStem: 608 175<453.435 670.017>
LayerCount: 3
Fore
SplineSet
403 740 m 0
 226 740 222 630 185 630 c 0
 169 630 163 639 163 652 c 0
 163 734 280 835 486 835 c 0
 702 835 783 679 783 607 c 0
 783 460 676 346 566 266 c 0
 429 166 310 102 310 92 c 0
 310 87 320 86 333 86 c 0
 678 86 839 191 881 191 c 0
 891 191 897 186 897 172 c 0
 897 159 865 25 852 12 c 0
 846 6 849 0 760 0 c 2
 88 -0 l 2
 73 0 60 2 60 17 c 0
 60 54 608 319 608 559 c 0
 608 653 522 740 403 740 c 0
EndSplineSet
AlternateSubs2: "'aalt' Access All Alternates in Latin lookup 0 subtable" two.lining two.sub two.sup two.denom two.numer
Substitution2: "lining_figures subtable" two.lining
Substitution2: "'subs' Subscript in Latin lookup 5 subtable" two.sub
Substitution2: "'sups' Superscript in Latin lookup 4 subtable" two.sup
Substitution2: "denominators subtable" two.denom
Substitution2: "numerators subtable" two.numer
EndChar

StartChar: three
Encoding: 51 51 89
Width: 968
VWidth: 0
Flags: W
HStem: -539 85<93.6453 486.417> 707 125<264.759 521.952>
VStem: 603 149<377.518 621.431> 681 177<-284.431 33.5578>
LayerCount: 3
Fore
SplineSet
93 -424 m 0xd0
 117 -424 182 -454 308 -454 c 0
 475 -454 681 -344 681 -126 c 0xd0
 681 88 523 132 466 142 c 0
 409 153 364 140 364 175 c 0
 364 228 470 198 547 307 c 0
 598 379 603 476 603 486 c 0
 603 566 547 707 406 707 c 0
 226 707 200 614 152 614 c 0
 136 614 128 627 128 646 c 0
 128 682 227 832 461 832 c 0
 628 832 752 726 752 551 c 0xe0
 752 312 544 225 544 225 c 1
 544 225 858 195 858 -113 c 0
 858 -411 549 -539 319 -539 c 0
 226 -539 63 -522 63 -453 c 0
 63 -430 78 -424 93 -424 c 0xd0
EndSplineSet
AlternateSubs2: "'aalt' Access All Alternates in Latin lookup 0 subtable" three.lining three.sub three.sup three.denom three.numer
Substitution2: "lining_figures subtable" three.lining
Substitution2: "'subs' Subscript in Latin lookup 5 subtable" three.sub
Substitution2: "'sups' Superscript in Latin lookup 4 subtable" three.sup
Substitution2: "denominators subtable" three.denom
Substitution2: "numerators subtable" three.numer
EndChar

StartChar: four
Encoding: 52 52 90
Width: 1142
VWidth: 0
Flags: W
HStem: 0 127<252 732 876 1074> 812 20G<857.5 867.5>
VStem: 732 144<-480 0 127 605>
LayerCount: 3
Fore
SplineSet
252 127 m 9
 732 127 l 25
 732 605 l 17
 252 127 l 9
39 15 m 0
 39 24 254 238 832 809 c 0
 847 823 854 832 861 832 c 0
 874 832 876 808 876 782 c 2
 876 127 l 9
 1116 127 l 25
 1074 0 l 25
 876 0 l 25
 876 -480 l 25
 732 -540 l 25
 732 0 l 17
 67 0 l 2
 53 0 39 1 39 15 c 0
EndSplineSet
AlternateSubs2: "'aalt' Access All Alternates in Latin lookup 0 subtable" four.lining four.sub four.sup four.denom four.numer
Substitution2: "lining_figures subtable" four.lining
Substitution2: "'subs' Subscript in Latin lookup 5 subtable" four.sub
Substitution2: "'sups' Superscript in Latin lookup 4 subtable" four.sup
Substitution2: "denominators subtable" four.denom
Substitution2: "numerators subtable" four.numer
EndChar

StartChar: five
Encoding: 53 53 91
Width: 960
VWidth: 0
Flags: MW
HStem: -530 78<158.082 523.62> 325 70<251.55 484.398> 694 95<271.29 675.13>
VStem: 190 60<395.837 665.628> 733 168<-243.972 125.377>
LayerCount: 3
Fore
SplineSet
97 -399 m 0
 160 -399 117 -452 375 -452 c 0
 575 -452 733 -260 733 -69 c 0
 733 269 443 325 279 325 c 0
 250 325 220 323 190 320 c 1
 190 565 164 768 164 772 c 0
 164 791 174 796 194 796 c 0
 247 796 400 789 496 789 c 0
 561 789 629 792 710 804 c 0
 743 809 746 884 746 884 c 1
 795 878 l 1
 771 705 l 2
 765 662 754 646 727 646 c 0
 646 646 350 694 323 694 c 0
 273 694 250 634 250 460 c 0
 250 395 264 395 302 395 c 0
 350 395 377 408 435 408 c 0
 703 408 901 302 901 -45 c 0
 901 -198 801 -530 381 -530 c 0
 144 -530 76 -441 76 -420 c 0
 76 -402 96 -399 97 -399 c 0
EndSplineSet
Layer: 2
SplineSet
42 133 m 4
 105 133 66 56 344 56 c 4
 544 56 702 232 702 417 c 4
 702 707 412 779 248 779 c 4
 219 779 189 777 159 774 c 5
 154 927 l 6
 146 1193 133 1165 133 1229 c 4
 133 1250 142 1256 163 1256 c 4
 216 1256 369 1249 465 1249 c 4
 530 1249 598 1252 679 1264 c 4
 712 1269 715 1341 715 1341 c 5
 764 1336 l 5
 740 1168 l 6
 734 1126 723 1110 696 1110 c 4
 615 1110 319 1157 292 1157 c 4
 242 1157 219 1079 219 910 c 4
 219 847 233 847 271 847 c 4
 319 847 346 854 404 854 c 4
 672 854 870 722 870 440 c 4
 870 291 770 -19 350 -19 c 4
 89 -19 21 92 21 112 c 4
 21 129 41 133 42 133 c 4
EndSplineSet
AlternateSubs2: "'aalt' Access All Alternates in Latin lookup 0 subtable" five.lining five.sub five.sup five.denom five.numer
Substitution2: "lining_figures subtable" five.lining
Substitution2: "'subs' Subscript in Latin lookup 5 subtable" five.sub
Substitution2: "'sups' Superscript in Latin lookup 4 subtable" five.sup
Substitution2: "denominators subtable" five.denom
Substitution2: "numerators subtable" five.numer
EndChar

StartChar: six
Encoding: 54 54 92
Width: 1024
VWidth: 0
Flags: W
HStem: -22 74<460.195 662.128> 715 105<392.694 619.871> 1262 78<581.354 848.143>
VStem: 97 168<293.613 741> 757 161<210.661 561.115>
LayerCount: 3
Fore
SplineSet
97 580 m 0
 97 1000 384 1340 697 1340 c 0
 729 1340 874 1315 874 1272 c 0
 874 1256 859 1248 846 1248 c 0
 829 1248 794 1262 743 1262 c 0
 672 1262 603 1239 543 1205 c 0
 263 1046 266 671 250 632 c 1
 333 779 470 820 554 820 c 0
 845 820 918 582 918 443 c 0
 918 143 745 -22 537 -22 c 0
 251 -22 97 246 97 580 c 0
757 354 m 0
 757 583 639 715 483 715 c 0
 353 715 265 604 265 483 c 0
 265 242 426 52 567 52 c 0
 673 52 757 155 757 354 c 0
EndSplineSet
AlternateSubs2: "'aalt' Access All Alternates in Latin lookup 0 subtable" six.lining six.sub six.sup six.denom six.numer
Substitution2: "lining_figures subtable" six.lining
Substitution2: "'subs' Subscript in Latin lookup 5 subtable" six.sub
Substitution2: "'sups' Superscript in Latin lookup 4 subtable" six.sup
Substitution2: "denominators subtable" six.denom
Substitution2: "numerators subtable" six.numer
EndChar

StartChar: seven
Encoding: 55 55 93
Width: 960
VWidth: 0
Flags: MW
HStem: -532 21G<426 502> 684 115<235.254 714.985>
VStem: 715 92<450.038 786.5>
LayerCount: 3
Fore
SplineSet
715 655 m 0
 715 680 694 684 666 684 c 0
 596 684 392 665 280 647 c 0
 150 627 108 599 92 599 c 0
 76 599 69 606 69 638 c 0
 69 670 79 729 91 786 c 0
 94 799 111 799 132 799 c 2
 772 799 l 2
 801 799 807 799 807 774 c 0
 807 488 530 -532 474 -532 c 1
 378 -510 326 -513 326 -486 c 0
 326 -429 428 -365 599 146 c 0
 677 376 715 606 715 655 c 0
EndSplineSet
AlternateSubs2: "'aalt' Access All Alternates in Latin lookup 0 subtable" seven.lining seven.sub seven.sup seven.denom seven.numer
Substitution2: "lining_figures subtable" seven.lining
Substitution2: "'subs' Subscript in Latin lookup 5 subtable" seven.sub
Substitution2: "'sups' Superscript in Latin lookup 4 subtable" seven.sup
Substitution2: "denominators subtable" seven.denom
Substitution2: "numerators subtable" seven.numer
EndChar

StartChar: eight
Encoding: 56 56 94
Width: 1024
VWidth: 0
Flags: W
HStem: -20.9199 78.2803<374.187 665> 1268.64 78.2803<355.363 629.06>
VStem: 94 123<192.641 468.514> 147 131<940.191 1186.05> 753 118<901.517 1156.74> 790 132<190.651 438.621>
LayerCount: 3
Fore
SplineSet
390 680.509765625 m 1xe4
 252 759.8203125 147 885.48046875 147 1021.44042969 c 0
 147 1221.25976562 304 1346.91992188 524 1346.91992188 c 0
 700 1346.91992188 871 1217.13964844 871 1058.51953125 c 0xd8
 871 829.860351562 616 717.58984375 616 717.58984375 c 1
 666 689.780273438 922 575.450195312 922 362.240234375 c 0
 922 157.26953125 752 -20.919921875 508 -20.919921875 c 0
 282 -20.919921875 94 109.889648438 94 320.009765625 c 0
 94 546.610351562 363 663 390 680.509765625 c 1xe4
526 57.3603515625 m 0
 674 57.3603515625 790 170.66015625 790 312.799804688 c 0
 790 467.299804688 656 526.009765625 444 650.639648438 c 1
 444 650.639648438 217 519.830078125 217 330.309570312 c 0xe4
 217 159.330078125 384 57.3603515625 526 57.3603515625 c 0
540 754.669921875 m 1
 540 754.669921875 753 846.33984375 753 1027.62011719 c 0
 753 1157.40039062 624 1268.63964844 498 1268.63964844 c 0
 322 1268.63964844 278 1159.45996094 278 1062.63964844 c 0xd8
 278 886.509765625 540 754.669921875 540 754.669921875 c 1
EndSplineSet
AlternateSubs2: "'aalt' Access All Alternates in Latin lookup 0 subtable" eight.lining eight.sub eight.sup eight.denom eight.numer
Substitution2: "lining_figures subtable" eight.lining
Substitution2: "'subs' Subscript in Latin lookup 5 subtable" eight.sub
Substitution2: "'sups' Superscript in Latin lookup 4 subtable" eight.sup
Substitution2: "denominators subtable" eight.denom
Substitution2: "numerators subtable" eight.numer
EndChar

StartChar: nine
Encoding: 57 57 95
Width: 981
VWidth: 0
Flags: W
HStem: -530 71<114.275 403.837> -15 113<363.652 605.542> 754 66<340.048 531.177>
VStem: 64 152<270.133 611.641> 724 174<-30.1702 521.31>
LayerCount: 3
Fore
SplineSet
448 820 m 0
 718 820 898 618 898 243 c 0
 898 -159 635 -530 280 -530 c 0
 157 -530 108 -499 108 -484 c 0
 108 -455 128 -449 161 -449 c 0
 189 -449 218 -459 256 -459 c 0
 568.958459047 -459 724 -92.8151831696 724 138 c 1
 724 138 636 -15 436 -15 c 0
 120 -15 64 267 64 417 c 0
 64 663 233 820 448 820 c 0
724 321 m 0
 724 534 591 754 427 754 c 0
 357 754 216 673 216 468 c 0
 216 377 259 98 516 98 c 0
 656 98 724 207 724 321 c 0
EndSplineSet
AlternateSubs2: "'aalt' Access All Alternates in Latin lookup 0 subtable" nine.lining nine.sub nine.sup nine.denom nine.numer
Substitution2: "lining_figures subtable" nine.lining
Substitution2: "'subs' Subscript in Latin lookup 5 subtable" nine.sub
Substitution2: "'sups' Superscript in Latin lookup 4 subtable" nine.sup
Substitution2: "denominators subtable" nine.denom
Substitution2: "numerators subtable" nine.numer
EndChar

StartChar: dollar
Encoding: 36 36 96
Width: 990
VWidth: 0
Flags: HW
LayerCount: 3
Fore
SplineSet
767 285 m 0
 767 448 522 541 521 541 c 1
 521 47 l 1
 521 47 587 52 653 95 c 0
 696 122 767 196 767 285 c 0
458 1161 m 1
 458 1161 241 1144 241 962 c 0
 241 819 458 720 458 720 c 1
 458 1161 l 1
46 259 m 0
 46 283 58 288 68 288 c 0
 135 288 56 127 355 57 c 0
 394 48 436 46 456 46 c 1
 456 563 l 1
 344 619 97 721 97 904 c 0
 97 1191 458 1218 458 1218 c 1
 458 1383 l 1
 523 1383 l 1
 523 1218 l 1
 733 1194 718 1188 735 1188 c 0
 747 1188 793 1202 796 1202 c 0
 820 1202 817 1175 833 1071 c 0
 834 1060 839 1024 839 1019 c 2
 839 1004 l 2
 839 993 837 985 825 985 c 0
 799 985 780 1015 758 1044 c 0
 679 1154 523 1161 523 1161 c 1
 523 698 l 1
 737 589 908 537 908 336 c 0
 908 23 521 -15 521 -15 c 1
 521 -343 l 1
 456 -343 l 1
 456 -16 l 1
 456 -16 229 -14 121 34 c 0
 72 55 73 62 61 150 c 0
 54 199 46 249 46 259 c 0
EndSplineSet
Layer: 2
SplineSet
529 731 m 1
 750 613 917 563 917 354 c 0
 917 40 552 -10 527 -10 c 1
 527 -355 l 1
 462 -355 l 1
 462 -11 l 1
 322 -11 184 14 123 41 c 0
 75 62 76 68 64 159 c 0
 59 199 48 263 48 272 c 0
 48 290 55 297 66 297 c 0
 127 297 64 127 360 53 c 0
 390 46 421 41 462 41 c 1
 462 600 l 1
 351 658 102 762 102 952 c 0
 102 1239 438 1277 464 1277 c 1
 464 1451 l 1
 529 1451 l 1
 529 1278 l 1
 754 1253 731 1247 748 1247 c 0
 763 1247 803 1260 810 1261 c 1
 829 1261 827 1234 842 1128 c 0
 844 1117 848 1079 848 1075 c 2
 848 1059 l 2
 848 1048 846 1044 839 1044 c 0
 817 1044 802 1068 776 1104 c 0
 702 1208 564 1230 529 1230 c 1
 529 731 l 1
236 1015 m 0
 236 862 452 762 464 754 c 1
 464 1230 l 1
 431 1230 236 1197 236 1015 c 0
786 299 m 0
 786 475 535 572 532 573 c 1
 527 573 l 1
 527 42 l 1
 766 90 786 259 786 299 c 0
810 1261 m 1
 810 1261 l 1
EndSplineSet
AlternateSubs2: "'aalt' Access All Alternates in Latin lookup 0 subtable" dollar.lining
Substitution2: "lining_figures subtable" dollar.lining
EndChar

StartChar: zero.numer
Encoding: 65550 -1 97
Width: 841
VWidth: 0
Flags: HW
LayerCount: 3
Fore
SplineSet
159 963 m 0
 159 779 254 542 424 542 c 0
 610 542 651 790 651 935 c 0
 651 1199 533 1329 409 1329 c 0
 260 1329 159 1149 159 963 c 0
801 949 m 0
 801 696 646 474 411 474 c 0
 188 474 33 655 33 959 c 0
 33 1206 217 1402 408 1402 c 0
 664 1402 801 1177 801 949 c 0
EndSplineSet
AlternateSubs2: "'aalt' Access All Alternates in Latin lookup 0 subtable" zero.denom
Substitution2: "Single Substitution lookup 3 subtable" zero.denom
EndChar

StartChar: one.numer
Encoding: 65551 -1 98
Width: 538
VWidth: 0
Flags: HW
LayerCount: 3
Fore
SplineSet
340 1420 m 1
 340 1420 327 1229 327 1094 c 2
 327 616 l 2
 327 552 356 562 517 559 c 1
 517 500 l 1
 36 500 l 1
 36 559 l 1
 170 562 197 550 197 616 c 2
 197 1249 l 2
 197 1298 188 1304 130 1304 c 2
 46 1304 l 1
 48 1363 l 1
 227 1363 l 2
 288 1363 294 1394 311 1421 c 1
 340 1420 l 1
EndSplineSet
AlternateSubs2: "'aalt' Access All Alternates in Latin lookup 0 subtable" one.denom
Substitution2: "Single Substitution lookup 3 subtable" one.denom
EndChar

StartChar: two.numer
Encoding: 65552 -1 99
Width: 819
VWidth: 0
Flags: HW
LayerCount: 3
Fore
SplineSet
398 1398 m 0
 583 1398 691 1285 691 1139 c 0
 691 884 255 606 255 583 c 0
 255 578 268 577 284 577 c 0
 584 577 711 647 739 647 c 0
 747 647 752 644 752 632 c 0
 752 622 730 519 714 509 c 0
 709 505 714 500 644 500 c 2
 135 500 l 2
 119 500 98 502 98 512 c 0
 98 538 522 866 522 1129 c 0
 522 1284 392 1309 341 1309 c 0
 181 1309 180 1236 146 1236 c 0
 134 1236 130 1243 130 1253 c 0
 130 1317 236 1398 398 1398 c 0
EndSplineSet
AlternateSubs2: "'aalt' Access All Alternates in Latin lookup 0 subtable" two.denom
Substitution2: "Single Substitution lookup 3 subtable" two.denom
EndChar

StartChar: three.numer
Encoding: 65553 -1 100
Width: 752
VWidth: 0
Flags: HW
LayerCount: 3
Fore
SplineSet
300 549 m 0xd0
 493 549 530 679 530 749 c 0xd0
 530 835 444 935 324 954 c 0
 275 962 243 956 243 979 c 0
 243 1005 271 1005 312 1014 c 0
 438 1041 453 1144 453 1182 c 0
 453 1233 401 1314 299 1314 c 0
 168 1314 150 1245 115 1245 c 0
 103 1245 97 1255 97 1269 c 0
 97 1297 173 1402 354 1402 c 0
 483 1402 614 1339 614 1219 c 0xe0
 614 1054 376 995 376 995 c 1
 376 995 690 962 690 748 c 0
 690 560 505 477 320 477 c 0
 177 477 46 531 46 578 c 0
 46 598 64 601 72 601 c 0
 103 601 149 549 300 549 c 0xd0
EndSplineSet
AlternateSubs2: "'aalt' Access All Alternates in Latin lookup 0 subtable" three.denom
Substitution2: "Single Substitution lookup 3 subtable" three.denom
EndChar

StartChar: four.numer
Encoding: 65554 -1 101
Width: 838
VWidth: 0
Flags: HW
LayerCount: 3
Fore
SplineSet
226 860 m 9
 518 860 l 25
 518 1199 l 17
 226 860 l 9
63 756 m 0
 63 795 168 863 613 1394 c 0
 623 1406 631 1410 636 1410 c 0
 646 1410 648 1393 648 1375 c 2
 648 860 l 9
 813 860 l 25
 781 745 l 25
 648 745 l 25
 648 480 l 29
 518 480 l 29
 518 745 l 17
 84 745 l 2
 73 745 63 746 63 756 c 0
EndSplineSet
AlternateSubs2: "'aalt' Access All Alternates in Latin lookup 0 subtable" four.denom
Substitution2: "Single Substitution lookup 3 subtable" four.denom
EndChar

StartChar: five.numer
Encoding: 65555 -1 102
Width: 731
VWidth: 0
Flags: HW
LayerCount: 3
Fore
SplineSet
51 603 m 0
 97 603 68 551 271 551 c 0
 417 551 513 670 513 794 c 0
 513 989 299 1037 180 1037 c 0
 159 1037 129 1035 107 1032 c 1
 101 1200 99 1275 99 1333 c 0
 99 1375 100 1382 122 1382 c 0
 161 1382 272 1376 342 1376 c 0
 389 1376 439 1378 498 1386 c 0
 522 1390 524 1440 524 1440 c 1
 568 1437 l 1
 551 1308 l 2
 547 1276 539 1263 519 1263 c 0
 460 1263 247 1293 227 1293 c 0
 191 1293 175 1244 175 1138 c 0
 175 1098 180 1098 209 1098 c 0
 245 1098 265 1104 309 1104 c 0
 487 1104 669 1011 669 810 c 0
 669 704 573 483 287 483 c 0
 88 483 36 570 36 586 c 0
 36 599 50 603 51 603 c 0
EndSplineSet
AlternateSubs2: "'aalt' Access All Alternates in Latin lookup 0 subtable" five.denom
Substitution2: "Single Substitution lookup 3 subtable" five.denom
EndChar

StartChar: six.numer
Encoding: 65556 -1 103
Width: 831
VWidth: 0
Flags: HW
LayerCount: 3
Fore
SplineSet
73 891 m 0
 73 1178 315 1411 567 1411 c 0
 593 1411 710 1390 710 1352 c 0
 710 1338 698 1331 688 1331 c 0
 675 1331 647 1343 607 1343 c 0
 552 1343 498 1328 451 1305 c 0
 232 1198 213 944 201 917 c 1
 267 1030 385 1072 451 1072 c 0
 747 1072 763 818 763 801 c 0
 763 594 599 480 430 480 c 0
 198 480 73 663 73 891 c 0
454 545 m 0
 538.995117188 545 628 618.982421875 628 739 c 0
 628 886 524 977 407 977 c 0
 310 977 228 898 228 821 c 0
 228 677.63671875 336.168945312 545 454 545 c 0
EndSplineSet
AlternateSubs2: "'aalt' Access All Alternates in Latin lookup 0 subtable" six.denom
Substitution2: "Single Substitution lookup 3 subtable" six.denom
EndChar

StartChar: seven.numer
Encoding: 65557 -1 104
Width: 734
VWidth: 0
Flags: HW
LayerCount: 3
Fore
SplineSet
93 1374 m 0
 95 1386 109 1386 125 1386 c 2
 628 1386 l 2
 650 1386 654 1386 654 1368 c 0
 654 1242 515 798 497 738 c 1
 438 556 l 2
 417 493 417 486 394 486 c 2
 278 486 l 2
 260 486 250 494 250 504 c 0
 250 524 335 586 463 935 c 1
 522 1092 552 1229 552 1262 c 0
 552 1279 536 1282 515 1282 c 0
 462 1282 319 1265 235 1249 c 0
 137 1231 106 1206 94 1206 c 0
 82 1206 76 1212 76 1241 c 0
 76 1270 84 1323 93 1374 c 0
EndSplineSet
AlternateSubs2: "'aalt' Access All Alternates in Latin lookup 0 subtable" seven.denom
Substitution2: "Single Substitution lookup 3 subtable" seven.denom
EndChar

StartChar: eight.numer
Encoding: 65558 -1 105
Width: 772
VWidth: 0
Flags: HW
LayerCount: 3
Fore
SplineSet
57 700 m 0
 57 870 269 939 291 952 c 1xe4
 182 1006 100 1085 100 1191 c 0
 100 1328 226 1414 388 1414 c 0
 518 1414 644 1325 644 1216 c 0xd8
 644 1059 463 995 463 995 c 1
 502 976 695 893 695 740 c 0
 695 600 579 476 376 476 c 0
 164 476 57 585 57 700 c 0
326 932 m 1
 303 920 170 840 170 719 c 0
 170 619 264 536 378 536 c 0
 380 536 382 536 384 536 c 0
 520 539 557 632 557 694 c 0
 557 815 449 862 326 932 c 1
418 1019 m 1
 418 1019 548 1067 548 1187 c 0
 548 1302 453 1351 371 1351 c 0
 266 1351 232 1278 232 1217 c 0
 232 1082 417 1020 418 1019 c 1
EndSplineSet
AlternateSubs2: "'aalt' Access All Alternates in Latin lookup 0 subtable" eight.denom
Substitution2: "Single Substitution lookup 3 subtable" eight.denom
EndChar

StartChar: nine.numer
Encoding: 65559 -1 106
Width: 785
VWidth: 0
Flags: HW
LayerCount: 3
Fore
SplineSet
327 811 m 0
 163.799804688 811 55 944.5 55 1098 c 0
 55 1258 172 1417 365 1417 c 0
 584 1417 732 1248 732 988 c 0
 732 624 489 493 295 493 c 0
 149 493 61 560 61 610 c 0
 61 626 69 634 82 634 c 0
 123 634 145 574 275 574 c 0
 509 574 597 794 597 923 c 0
 597 934 596 941 596 941 c 1
 596 941 516 811 327 811 c 0
357 1359 m 0
 302 1359 192 1312 192 1144 c 0
 192 1084 224 904 417 904 c 0
 522 904 575 966 575 1041 c 0
 575 1200 480 1359 357 1359 c 0
EndSplineSet
AlternateSubs2: "'aalt' Access All Alternates in Latin lookup 0 subtable" nine.denom
Substitution2: "Single Substitution lookup 3 subtable" nine.denom
EndChar

StartChar: zero.denom
Encoding: 65560 -1 107
Width: 841
VWidth: 0
Flags: HW
LayerCount: 3
Fore
SplineSet
159 463 m 0
 159 279 254 42 424 42 c 0
 610 42 651 290 651 435 c 0
 651 699 533 829 409 829 c 0
 260 829 159 649 159 463 c 0
801 449 m 0
 801 196 646 -26 411 -26 c 0
 188 -26 33 155 33 459 c 0
 33 706 217 902 408 902 c 0
 664 902 801 677 801 449 c 0
EndSplineSet
EndChar

StartChar: one.denom
Encoding: 65561 -1 108
Width: 538
VWidth: 0
Flags: HW
LayerCount: 3
Fore
SplineSet
340 920 m 1
 340 920 327 729 327 594 c 2
 327 116 l 2
 327 52 356 62 517 59 c 1
 517 0 l 1
 36 0 l 1
 36 59 l 1
 170 62 197 50 197 116 c 2
 197 749 l 2
 197 798 188 804 130 804 c 2
 46 804 l 1
 48 863 l 1
 227 863 l 2
 288 863 294 894 311 921 c 1
 340 920 l 1
EndSplineSet
EndChar

StartChar: two.denom
Encoding: 65562 -1 109
Width: 819
VWidth: 0
Flags: HW
LayerCount: 3
Fore
SplineSet
398 898 m 0
 583 898 691 785 691 639 c 0
 691 384 255 106 255 83 c 0
 255 78 268 77 284 77 c 0
 584 77 711 147 739 147 c 0
 747 147 752 144 752 132 c 0
 752 122 730 19 714 9 c 0
 709 5 714 0 644 0 c 2
 135 0 l 2
 119 0 98 2 98 12 c 0
 98 38 522 366 522 629 c 0
 522 784 392 809 341 809 c 0
 181 809 180 736 146 736 c 0
 134 736 130 743 130 753 c 0
 130 817 236 898 398 898 c 0
EndSplineSet
EndChar

StartChar: three.denom
Encoding: 65563 -1 110
Width: 752
VWidth: 0
Flags: HW
LayerCount: 3
Fore
SplineSet
300 49 m 0xd0
 493 49 530 179 530 249 c 0xd0
 530 335 444 435 324 454 c 0
 275 462 243 456 243 479 c 0
 243 505 271 505 312 514 c 0
 438 541 453 644 453 682 c 0
 453 733 401 814 299 814 c 0
 168 814 150 745 115 745 c 0
 103 745 97 755 97 769 c 0
 97 797 173 902 354 902 c 0
 483 902 614 839 614 719 c 0xe0
 614 554 376 495 376 495 c 1
 376 495 690 462 690 248 c 0
 690 60 505 -23 320 -23 c 0
 177 -23 46 31 46 78 c 0
 46 98 64 101 72 101 c 0
 103 101 149 49 300 49 c 0xd0
EndSplineSet
EndChar

StartChar: four.denom
Encoding: 65564 -1 111
Width: 838
VWidth: 0
Flags: HW
LayerCount: 3
Fore
SplineSet
226 360 m 9
 518 360 l 25
 518 699 l 17
 226 360 l 9
63 256 m 0
 63 295 168 363 613 894 c 0
 623 906 631 910 636 910 c 0
 646 910 648 893 648 875 c 2
 648 360 l 9
 813 360 l 25
 781 245 l 25
 648 245 l 25
 648 -20 l 29
 518 -20 l 29
 518 245 l 17
 84 245 l 2
 73 245 63 246 63 256 c 0
EndSplineSet
EndChar

StartChar: five.denom
Encoding: 65565 -1 112
Width: 731
VWidth: 0
Flags: HW
LayerCount: 3
Fore
SplineSet
51 103 m 0
 97 103 68 51 271 51 c 0
 417 51 513 170 513 294 c 0
 513 489 299 537 180 537 c 0
 159 537 129 535 107 532 c 1
 101 700 99 775 99 833 c 0
 99 875 100 882 122 882 c 0
 161 882 272 876 342 876 c 0
 389 876 439 878 498 886 c 0
 522 890 524 940 524 940 c 1
 568 937 l 1
 551 808 l 2
 547 776 539 763 519 763 c 0
 460 763 247 793 227 793 c 0
 191 793 175 744 175 638 c 0
 175 598 180 598 209 598 c 0
 245 598 265 604 309 604 c 0
 487 604 669 511 669 310 c 0
 669 204 573 -17 287 -17 c 0
 88 -17 36 70 36 86 c 0
 36 99 50 103 51 103 c 0
EndSplineSet
EndChar

StartChar: six.denom
Encoding: 65566 -1 113
Width: 831
VWidth: 0
Flags: HW
LayerCount: 3
Fore
SplineSet
73 391 m 0
 73 678 315 911 567 911 c 0
 593 911 710 890 710 852 c 0
 710 838 698 831 688 831 c 0
 675 831 647 843 607 843 c 0
 552 843 498 828 451 805 c 0
 232 698 213 444 201 417 c 1
 267 530 385 572 451 572 c 0
 747 572 763 318 763 301 c 0
 763 94 599 -20 430 -20 c 0
 198 -20 73 163 73 391 c 0
454 45 m 0
 538.99550395 45 628 118.982345499 628 239 c 0
 628 386 524 477 407 477 c 0
 310 477 228 398 228 321 c 0
 228 177.636320718 336.168713568 45 454 45 c 0
EndSplineSet
EndChar

StartChar: seven.denom
Encoding: 65567 -1 114
Width: 734
VWidth: 0
Flags: HW
LayerCount: 3
Fore
SplineSet
93 874 m 0
 95 886 109 886 125 886 c 2
 628 886 l 2
 650 886 654 886 654 868 c 0
 654 742 515 298 497 238 c 1
 438 56 l 2
 417 -7 417 -14 394 -14 c 2
 278 -14 l 2
 260 -14 250 -6 250 4 c 0
 250 24 335 86 463 435 c 1
 522 592 552 729 552 762 c 0
 552 779 536 782 515 782 c 0
 462 782 319 765 235 749 c 0
 137 731 106 706 94 706 c 0
 82 706 76 712 76 741 c 0
 76 770 84 823 93 874 c 0
EndSplineSet
EndChar

StartChar: eight.denom
Encoding: 65568 -1 115
Width: 772
VWidth: 0
Flags: HW
LayerCount: 3
Fore
SplineSet
57 200 m 0
 57 370 269 439 291 452 c 1xe4
 182 506 100 585 100 691 c 0
 100 828 226 914 388 914 c 0
 518 914 644 825 644 716 c 0xd8
 644 559 463 495 463 495 c 1
 502 476 695 393 695 240 c 0
 695 100 579 -24 376 -24 c 0
 164 -24 57 85 57 200 c 0
326 432 m 1
 303 420 170 340 170 219 c 0
 170 119 264 36 378 36 c 0
 380 36 382 36 384 36 c 0
 520 39 557 132 557 194 c 0
 557 315 449 362 326 432 c 1
418 519 m 1
 418 519 548 567 548 687 c 0
 548 802 453 851 371 851 c 0
 266 851 232 778 232 717 c 0
 232 582 417 520 418 519 c 1
EndSplineSet
Layer: 2
SplineSet
301 458 m 5xe4
 192 512 110 598 110 691 c 4
 110 828 226 914 388 914 c 4
 518 914 644 825 644 716 c 4xd8
 644 559 448 483 448 483 c 5
 487 464 690 385 690 240 c 4
 690 100 561 -21 376 -21 c 4
 205 -21 62 68 62 212 c 4
 62 367 279 446 301 458 c 5xe4
387 47 m 4
 490 47 570 121 570 215 c 4
 570 317 480 356 336 438 c 5
 336 438 172 352 172 227 c 4xe4
 172 114 288 47 387 47 c 4
398 507 m 5
 398 507 538 567 538 687 c 4
 538 773 453 846 371 846 c 4
 256 846 228 774 228 710 c 4xd8
 228 594 398 507 398 507 c 5
EndSplineSet
EndChar

StartChar: nine.denom
Encoding: 65569 -1 116
Width: 785
VWidth: 0
Flags: HW
LayerCount: 3
Fore
SplineSet
327 311 m 0
 163.8 311 55 444.5 55 598 c 0
 55 758 172 917 365 917 c 0
 584 917 732 748 732 488 c 0
 732 124 489 -7 295 -7 c 0
 149 -7 61 60 61 110 c 0
 61 126 69 134 82 134 c 0
 123 134 145 74 275 74 c 0
 509 74 597 294 597 423 c 0
 597 434 596 441 596 441 c 1
 596 441 516 311 327 311 c 0
357 859 m 0
 302 859 192 812 192 644 c 0
 192 584 224 404 417 404 c 0
 522 404 575 466 575 541 c 0
 575 700 480 859 357 859 c 0
EndSplineSet
EndChar

StartChar: zero.sub
Encoding: 65570 -1 117
Width: 841
VWidth: 0
Flags: HW
LayerCount: 3
Fore
SplineSet
159 263 m 0
 159 79 254 -158 424 -158 c 0
 610 -158 651 90 651 235 c 0
 651 499 533 629 409 629 c 0
 260 629 159 449 159 263 c 0
801 249 m 0
 801 -4 646 -226 411 -226 c 0
 188 -226 33 -45 33 259 c 0
 33 506 217 702 408 702 c 0
 664 702 801 477 801 249 c 0
EndSplineSet
EndChar

StartChar: one.sub
Encoding: 65571 -1 118
Width: 538
VWidth: 0
Flags: HW
LayerCount: 3
Fore
SplineSet
340 720 m 1
 340 720 327 529 327 394 c 2
 327 -84 l 2
 327 -148 356 -138 517 -141 c 1
 517 -200 l 1
 36 -200 l 1
 36 -141 l 1
 170 -138 197 -150 197 -84 c 2
 197 549 l 2
 197 598 188 604 130 604 c 2
 46 604 l 1
 48 663 l 1
 227 663 l 2
 288 663 294 694 311 721 c 1
 340 720 l 1
EndSplineSet
EndChar

StartChar: two.sub
Encoding: 65572 -1 119
Width: 819
VWidth: 0
Flags: HW
LayerCount: 3
Fore
SplineSet
398 698 m 0
 583 698 691 585 691 439 c 0
 691 184 255 -94 255 -117 c 0
 255 -122 268 -123 284 -123 c 0
 584 -123 711 -53 739 -53 c 0
 747 -53 752 -56 752 -68 c 0
 752 -78 730 -181 714 -191 c 0
 709 -195 714 -200 644 -200 c 2
 135 -200 l 2
 119 -200 98 -198 98 -188 c 0
 98 -162 522 166 522 429 c 0
 522 584 392 609 341 609 c 0
 181 609 180 536 146 536 c 0
 134 536 130 543 130 553 c 0
 130 617 236 698 398 698 c 0
EndSplineSet
EndChar

StartChar: three.sub
Encoding: 65573 -1 120
Width: 752
VWidth: 0
Flags: HW
LayerCount: 3
Fore
SplineSet
300 -151 m 0xd0
 493 -151 530 -21 530 49 c 0xd0
 530 135 444 235 324 254 c 0
 275 262 243 256 243 279 c 0
 243 305 271 305 312 314 c 0
 438 341 453 444 453 482 c 0
 453 533 401 614 299 614 c 0
 168 614 150 545 115 545 c 0
 103 545 97 555 97 569 c 0
 97 597 173 702 354 702 c 0
 483 702 614 639 614 519 c 0xe0
 614 354 376 295 376 295 c 1
 376 295 690 262 690 48 c 0
 690 -140 505 -223 320 -223 c 0
 177 -223 46 -169 46 -122 c 0
 46 -102 64 -99 72 -99 c 0
 103 -99 149 -151 300 -151 c 0xd0
EndSplineSet
EndChar

StartChar: four.sub
Encoding: 65574 -1 121
Width: 838
VWidth: 0
Flags: HW
LayerCount: 3
Fore
SplineSet
226 160 m 9
 518 160 l 25
 518 499 l 17
 226 160 l 9
63 56 m 0
 63 95 168 163 613 694 c 0
 623 706 631 710 636 710 c 0
 646 710 648 693 648 675 c 2
 648 160 l 9
 813 160 l 25
 781 45 l 25
 648 45 l 25
 648 -220 l 29
 518 -220 l 29
 518 45 l 17
 84 45 l 2
 73 45 63 46 63 56 c 0
EndSplineSet
EndChar

StartChar: five.sub
Encoding: 65575 -1 122
Width: 731
VWidth: 0
Flags: HW
LayerCount: 3
Fore
SplineSet
51 -97 m 0
 97 -97 68 -149 271 -149 c 0
 417 -149 513 -30 513 94 c 0
 513 289 299 337 180 337 c 0
 159 337 129 335 107 332 c 1
 101 500 99 575 99 633 c 0
 99 675 100 682 122 682 c 0
 161 682 272 676 342 676 c 0
 389 676 439 678 498 686 c 0
 522 690 524 740 524 740 c 1
 568 737 l 1
 551 608 l 2
 547 576 539 563 519 563 c 0
 460 563 247 593 227 593 c 0
 191 593 175 544 175 438 c 0
 175 398 180 398 209 398 c 0
 245 398 265 404 309 404 c 0
 487 404 669 311 669 110 c 0
 669 4 573 -217 287 -217 c 0
 88 -217 36 -130 36 -114 c 0
 36 -101 50 -97 51 -97 c 0
EndSplineSet
EndChar

StartChar: six.sub
Encoding: 65576 -1 123
Width: 831
VWidth: 0
Flags: HW
LayerCount: 3
Fore
SplineSet
73 191 m 0
 73 478 315 711 567 711 c 0
 593 711 710 690 710 652 c 0
 710 638 698 631 688 631 c 0
 675 631 647 643 607 643 c 0
 552 643 498 628 451 605 c 0
 232 498 213 244 201 217 c 1
 267 330 385 372 451 372 c 0
 747 372 763 118 763 101 c 0
 763 -106 599 -220 430 -220 c 0
 198 -220 73 -37 73 191 c 0
454 -155 m 0
 538.995117188 -155 628 -81.017578125 628 39 c 0
 628 186 524 277 407 277 c 0
 310 277 228 198 228 121 c 0
 228 -22.36328125 336.168945312 -155 454 -155 c 0
EndSplineSet
EndChar

StartChar: seven.sub
Encoding: 65577 -1 124
Width: 734
VWidth: 0
Flags: HW
LayerCount: 3
Fore
SplineSet
93 674 m 0
 95 686 109 686 125 686 c 2
 628 686 l 2
 650 686 654 686 654 668 c 0
 654 542 515 98 497 38 c 1
 438 -144 l 2
 417 -207 417 -214 394 -214 c 2
 278 -214 l 2
 260 -214 250 -206 250 -196 c 0
 250 -176 335 -114 463 235 c 1
 522 392 552 529 552 562 c 0
 552 579 536 582 515 582 c 0
 462 582 319 565 235 549 c 0
 137 531 106 506 94 506 c 0
 82 506 76 512 76 541 c 0
 76 570 84 623 93 674 c 0
EndSplineSet
EndChar

StartChar: eight.sub
Encoding: 65578 -1 125
Width: 772
VWidth: 0
Flags: HW
LayerCount: 3
Fore
SplineSet
57 0 m 0
 57 170 269 239 291 252 c 1xe4
 182 306 100 385 100 491 c 0
 100 628 226 714 388 714 c 0
 518 714 644 625 644 516 c 0xd8
 644 359 463 295 463 295 c 1
 502 276 695 193 695 40 c 0
 695 -100 579 -224 376 -224 c 0
 164 -224 57 -115 57 0 c 0
326 232 m 1
 303 220 170 140 170 19 c 0
 170 -81 264 -164 378 -164 c 0
 380 -164 382 -164 384 -164 c 0
 520 -161 557 -68 557 -6 c 0
 557 115 449 162 326 232 c 1
418 319 m 1
 418 319 548 367 548 487 c 0
 548 602 453 651 371 651 c 0
 266 651 232 578 232 517 c 0
 232 382 417 320 418 319 c 1
EndSplineSet
EndChar

StartChar: nine.sub
Encoding: 65579 -1 126
Width: 785
VWidth: 0
Flags: HW
LayerCount: 3
Fore
SplineSet
327 111 m 0
 163.799804688 111 55 244.5 55 398 c 0
 55 558 172 717 365 717 c 0
 584 717 732 548 732 288 c 0
 732 -76 489 -207 295 -207 c 0
 149 -207 61 -140 61 -90 c 0
 61 -74 69 -66 82 -66 c 0
 123 -66 145 -126 275 -126 c 0
 509 -126 597 94 597 223 c 0
 597 234 596 241 596 241 c 1
 596 241 516 111 327 111 c 0
357 659 m 0
 302 659 192 612 192 444 c 0
 192 384 224 204 417 204 c 0
 522 204 575 266 575 341 c 0
 575 500 480 659 357 659 c 0
EndSplineSet
EndChar

StartChar: zero.sup
Encoding: 65580 -1 127
Width: 841
VWidth: 0
Flags: HW
LayerCount: 3
Fore
SplineSet
159 963 m 0
 159 779 254 542 424 542 c 0
 610 542 651 790 651 935 c 0
 651 1199 533 1329 409 1329 c 0
 260 1329 159 1149 159 963 c 0
801 949 m 0
 801 696 646 474 411 474 c 0
 188 474 33 655 33 959 c 0
 33 1206 217 1402 408 1402 c 0
 664 1402 801 1177 801 949 c 0
EndSplineSet
EndChar

StartChar: one.sup
Encoding: 65581 -1 128
Width: 538
VWidth: 0
Flags: HW
LayerCount: 3
Fore
SplineSet
340 1420 m 1
 340 1420 327 1229 327 1094 c 2
 327 616 l 2
 327 552 356 562 517 559 c 1
 517 500 l 1
 36 500 l 1
 36 559 l 1
 170 562 197 550 197 616 c 2
 197 1249 l 2
 197 1298 188 1304 130 1304 c 2
 46 1304 l 1
 48 1363 l 1
 227 1363 l 2
 288 1363 294 1394 311 1421 c 1
 340 1420 l 1
EndSplineSet
EndChar

StartChar: two.sup
Encoding: 65582 -1 129
Width: 819
VWidth: 0
Flags: HW
LayerCount: 3
Fore
SplineSet
398 1398 m 0
 583 1398 691 1285 691 1139 c 0
 691 884 255 606 255 583 c 0
 255 578 268 577 284 577 c 0
 584 577 711 647 739 647 c 0
 747 647 752 644 752 632 c 0
 752 622 730 519 714 509 c 0
 709 505 714 500 644 500 c 2
 135 500 l 2
 119 500 98 502 98 512 c 0
 98 538 522 866 522 1129 c 0
 522 1284 392 1309 341 1309 c 0
 181 1309 180 1236 146 1236 c 0
 134 1236 130 1243 130 1253 c 0
 130 1317 236 1398 398 1398 c 0
EndSplineSet
EndChar

StartChar: three.sup
Encoding: 65583 -1 130
Width: 752
VWidth: 0
Flags: HW
LayerCount: 3
Fore
SplineSet
300 549 m 0xd0
 493 549 530 679 530 749 c 0xd0
 530 835 444 935 324 954 c 0
 275 962 243 956 243 979 c 0
 243 1005 271 1005 312 1014 c 0
 438 1041 453 1144 453 1182 c 0
 453 1233 401 1314 299 1314 c 0
 168 1314 150 1245 115 1245 c 0
 103 1245 97 1255 97 1269 c 0
 97 1297 173 1402 354 1402 c 0
 483 1402 614 1339 614 1219 c 0xe0
 614 1054 376 995 376 995 c 1
 376 995 690 962 690 748 c 0
 690 560 505 477 320 477 c 0
 177 477 46 531 46 578 c 0
 46 598 64 601 72 601 c 0
 103 601 149 549 300 549 c 0xd0
EndSplineSet
EndChar

StartChar: four.sup
Encoding: 65584 -1 131
Width: 838
VWidth: 0
Flags: HW
LayerCount: 3
Fore
SplineSet
226 860 m 9
 518 860 l 25
 518 1199 l 17
 226 860 l 9
63 756 m 0
 63 795 168 863 613 1394 c 0
 623 1406 631 1410 636 1410 c 0
 646 1410 648 1393 648 1375 c 2
 648 860 l 9
 813 860 l 25
 781 745 l 25
 648 745 l 25
 648 480 l 29
 518 480 l 29
 518 745 l 17
 84 745 l 2
 73 745 63 746 63 756 c 0
EndSplineSet
EndChar

StartChar: five.sup
Encoding: 65585 -1 132
Width: 731
VWidth: 0
Flags: HW
LayerCount: 3
Fore
SplineSet
51 603 m 0
 97 603 68 551 271 551 c 0
 417 551 513 670 513 794 c 0
 513 989 299 1037 180 1037 c 0
 159 1037 129 1035 107 1032 c 1
 101 1200 99 1275 99 1333 c 0
 99 1375 100 1382 122 1382 c 0
 161 1382 272 1376 342 1376 c 0
 389 1376 439 1378 498 1386 c 0
 522 1390 524 1440 524 1440 c 1
 568 1437 l 1
 551 1308 l 2
 547 1276 539 1263 519 1263 c 0
 460 1263 247 1293 227 1293 c 0
 191 1293 175 1244 175 1138 c 0
 175 1098 180 1098 209 1098 c 0
 245 1098 265 1104 309 1104 c 0
 487 1104 669 1011 669 810 c 0
 669 704 573 483 287 483 c 0
 88 483 36 570 36 586 c 0
 36 599 50 603 51 603 c 0
EndSplineSet
EndChar

StartChar: six.sup
Encoding: 65586 -1 133
Width: 831
VWidth: 0
Flags: HW
LayerCount: 3
Fore
SplineSet
73 891 m 0
 73 1178 315 1411 567 1411 c 0
 593 1411 710 1390 710 1352 c 0
 710 1338 698 1331 688 1331 c 0
 675 1331 647 1343 607 1343 c 0
 552 1343 498 1328 451 1305 c 0
 232 1198 213 944 201 917 c 1
 267 1030 385 1072 451 1072 c 0
 747 1072 763 818 763 801 c 0
 763 594 599 480 430 480 c 0
 198 480 73 663 73 891 c 0
454 545 m 0
 538.995117188 545 628 618.982421875 628 739 c 0
 628 886 524 977 407 977 c 0
 310 977 228 898 228 821 c 0
 228 677.63671875 336.168945312 545 454 545 c 0
EndSplineSet
EndChar

StartChar: seven.sup
Encoding: 65587 -1 134
Width: 734
VWidth: 0
Flags: HW
LayerCount: 3
Fore
SplineSet
93 1374 m 0
 95 1386 109 1386 125 1386 c 2
 628 1386 l 2
 650 1386 654 1386 654 1368 c 0
 654 1242 515 798 497 738 c 1
 438 556 l 2
 417 493 417 486 394 486 c 2
 278 486 l 2
 260 486 250 494 250 504 c 0
 250 524 335 586 463 935 c 1
 522 1092 552 1229 552 1262 c 0
 552 1279 536 1282 515 1282 c 0
 462 1282 319 1265 235 1249 c 0
 137 1231 106 1206 94 1206 c 0
 82 1206 76 1212 76 1241 c 0
 76 1270 84 1323 93 1374 c 0
EndSplineSet
EndChar

StartChar: eight.sup
Encoding: 65588 -1 135
Width: 772
VWidth: 0
Flags: HW
LayerCount: 3
Fore
SplineSet
57 700 m 0
 57 870 269 939 291 952 c 1xe4
 182 1006 100 1085 100 1191 c 0
 100 1328 226 1414 388 1414 c 0
 518 1414 644 1325 644 1216 c 0xd8
 644 1059 463 995 463 995 c 1
 502 976 695 893 695 740 c 0
 695 600 579 476 376 476 c 0
 164 476 57 585 57 700 c 0
326 932 m 1
 303 920 170 840 170 719 c 0
 170 619 264 536 378 536 c 0
 380 536 382 536 384 536 c 0
 520 539 557 632 557 694 c 0
 557 815 449 862 326 932 c 1
418 1019 m 1
 418 1019 548 1067 548 1187 c 0
 548 1302 453 1351 371 1351 c 0
 266 1351 232 1278 232 1217 c 0
 232 1082 417 1020 418 1019 c 1
EndSplineSet
EndChar

StartChar: nine.sup
Encoding: 65589 -1 136
Width: 785
VWidth: 0
Flags: HW
LayerCount: 3
Fore
SplineSet
327 811 m 0
 163.799804688 811 55 944.5 55 1098 c 0
 55 1258 172 1417 365 1417 c 0
 584 1417 732 1248 732 988 c 0
 732 624 489 493 295 493 c 0
 149 493 61 560 61 610 c 0
 61 626 69 634 82 634 c 0
 123 634 145 574 275 574 c 0
 509 574 597 794 597 923 c 0
 597 934 596 941 596 941 c 1
 596 941 516 811 327 811 c 0
357 1359 m 0
 302 1359 192 1312 192 1144 c 0
 192 1084 224 904 417 904 c 0
 522 904 575 966 575 1041 c 0
 575 1200 480 1359 357 1359 c 0
EndSplineSet
EndChar

StartChar: slash
Encoding: 47 47 137
Width: 851
VWidth: 1000
Flags: WO
HStem: -530 21G<-10 92.279> 1464 20G<715.721 818>
LayerCount: 3
Fore
SplineSet
-10 -530 m 1
 723 1484 l 1
 818 1484 l 1
 85 -530 l 1
 -10 -530 l 1
EndSplineSet
AlternateSubs2: "'aalt' Access All Alternates in Latin lookup 0 subtable" fraction
Substitution2: "numerators subtable" fraction
EndChar

StartChar: fraction
Encoding: 8260 8260 138
Width: 851
VWidth: 1000
Flags: W
HStem: 1345 20G<926.992 1044>
LayerCount: 3
Fore
SplineSet
-83 -97 m 1
 941 1365 l 1
 1044 1365 l 1
 20 -97 l 1
 -83 -97 l 1
EndSplineSet
EndChar

StartChar: zero.lining
Encoding: 65590 -1 139
Width: 1064
VWidth: 0
Flags: W
HStem: -21 81<410.844 663.415> 1216 81<397.922 652.916>
VStem: 49 136<376.414 914.027> 868 157<375.195 930.299>
LayerCount: 3
Fore
SplineSet
537 60 m 0
 754 60 868 346 868 633 c 0
 868 1023 697 1216 525 1216 c 0
 314 1216 185 950 185 675 c 0
 185 376 306 60 537 60 c 0
519 -21 m 0
 167 -21 49 309 49 668 c 0
 49 993 272 1297 523 1297 c 0
 859 1297 1025 977 1025 653 c 0
 1025 319 849 -21 519 -21 c 0
EndSplineSet
EndChar

StartChar: one.lining
Encoding: 65591 -1 140
Width: 688
VWidth: 0
Flags: HW
HStem: 0 65<48 259.225 412.967 660> 1166 64<65 258.068>
VStem: 263 144<72.6596 1157.83>
LayerCount: 3
Fore
SplineSet
424 1312 m 1
 424 1312 407 1035 407 840 c 2
 407 133 l 2
 407 56 446 70 660 65 c 1
 660 0 l 1
 48 0 l 1
 48 65 l 1
 243 68 263 55 263 134 c 2
 263 1084 l 2
 263 1157 252 1165 174 1165 c 2
 62 1165 l 1
 64 1230 l 1
 285 1230 l 2
 361 1230 368 1275 389 1313 c 1
 424 1312 l 1
EndSplineSet
Layer: 2
SplineSet
424 1357 m 5
 424 1357 407 1080 407 885 c 6
 407 133 l 6
 407 56 446 70 660 65 c 5
 660 0 l 5
 48 0 l 5
 48 65 l 5
 243 68 263 55 263 134 c 6
 263 1129 l 6
 263 1202 252 1211 174 1211 c 4
 140 1211 62 1210 62 1210 c 5
 65 1275 l 5
 163 1277 243 1278 285 1278 c 4
 361 1278 368 1320 389 1358 c 5
 424 1357 l 5
EndSplineSet
EndChar

StartChar: two.lining
Encoding: 65592 -1 141
Width: 1058
VWidth: 0
Flags: W
HStem: 0 86<286.012 725.027> 1183 99<300.74 593.24>
VStem: 695 176<769.032 1081.47>
LayerCount: 3
Fore
SplineSet
951 191 m 0
 961 191 967 187 967 172 c 0
 967 159 940 25 919 12 c 0
 912 7 919 0 830 0 c 2
 178 0 l 2
 158 0 130 2 130 17 c 0
 130 42 214 103 372 288 c 0
 521 463 695 711 695 920 c 0
 695 1147 522 1183 454 1183 c 0
 241 1183 240 1074 195 1074 c 0
 179 1074 173 1083 173 1096 c 0
 173 1178 308 1282 514 1282 c 0
 730 1282 871 1122 871 949 c 0
 871 790 739 576 603 417 c 0
 452 241 286 114 286 95 c 0
 286 87 303 86 323 86 c 0
 704 86 915 191 951 191 c 0
EndSplineSet
EndChar

StartChar: three.lining
Encoding: 65593 -1 142
Width: 968
VWidth: 0
Flags: W
HStem: -26 86<172.923 578.471> 1182 120<263.271 550.032>
VStem: 629 172<886.11 1105.59> 720 177<197.218 489.2>
LayerCount: 3
Fore
SplineSet
399 60 m 0xd0
 656 60 720 248 720 352 c 0xd0
 720 481 594 630 438 659 c 0
 374 671 333 662 333 696 c 0
 333 735 371 735 427 748 c 0
 600 788 629 942 629 999 c 0
 629 1076 551 1182 410 1182 c 0
 230 1182 204 1093 156 1093 c 0
 140 1093 132 1106 132 1124 c 0
 132 1159 231 1302 465 1302 c 0
 632 1302 801 1200 801 1032 c 0xe0
 801 802 516 719 516 719 c 1
 516 719 897 660 897 364 c 0
 897 94 648 -26 412 -26 c 0
 229 -26 62 43 62 102 c 0
 62 127 85 131 96 131 c 0
 137 131 198 60 399 60 c 0xd0
EndSplineSet
EndChar

StartChar: four.lining
Encoding: 65594 -1 143
Width: 1088
VWidth: 0
Flags: W
HStem: 328 127<235 690 834 1012>
VStem: 690 144<-50 328 455 1004>
LayerCount: 3
Fore
SplineSet
235 455 m 9
 690 455 l 25
 690 1004 l 17
 235 455 l 9
57 343 m 0
 57 396 218 524 790 1254 c 0
 803 1270 812 1277 819 1277 c 0
 832 1277 834 1253 834 1227 c 2
 834 455 l 9
 1054 455 l 25
 1012 328 l 25
 834 328 l 25
 834 -50 l 25
 690 -82 l 25
 690 328 l 17
 85 328 l 2
 71 328 57 329 57 343 c 0
EndSplineSet
EndChar

StartChar: five.lining
Encoding: 65595 -1 144
Width: 960
VWidth: 0
Flags: W
HStem: -19 75<130.579 492.62> 779 68<220.55 441.213> 1157 92<242.835 656.492>
VStem: 154 65<847.528 1131.35> 702 168<249.849 584.892>
LayerCount: 3
Fore
SplineSet
42 133 m 0
 105 133 66 56 344 56 c 0
 544 56 702 232 702 417 c 0
 702 707 412 779 248 779 c 0
 219 779 189 777 159 774 c 1
 154 927 l 2
 146 1193 133 1165 133 1229 c 0
 133 1250 142 1256 163 1256 c 0
 216 1256 369 1249 465 1249 c 0
 530 1249 598 1252 679 1264 c 0
 712 1269 715 1341 715 1341 c 1
 764 1336 l 1
 740 1168 l 2
 734 1126 723 1110 696 1110 c 0
 615 1110 319 1157 292 1157 c 0
 242 1157 219 1079 219 910 c 0
 219 847 233 847 271 847 c 0
 319 847 346 854 404 854 c 0
 672 854 870 722 870 440 c 0
 870 291 770 -19 350 -19 c 0
 89 -19 21 92 21 112 c 0
 21 129 41 133 42 133 c 0
EndSplineSet
EndChar

StartChar: six.lining
Encoding: 65596 -1 145
Width: 1040
VWidth: 0
Flags: W
HStem: -22 72<461.366 672.451> 704 106<403.693 640.781> 1224 76<595.709 865.315>
VStem: 97 183<284.195 709.693> 787 161<215.499 545.678>
LayerCount: 3
Fore
SplineSet
97 562 m 0
 97 970 399 1300 712 1300 c 0
 744 1300 889 1276 889 1234 c 0
 889 1218 874 1211 861 1211 c 0
 844 1211 809 1224 758 1224 c 0
 687 1224 618 1202 558 1169 c 0
 278 1015 266 651 250 613 c 1
 333 756 470 810 554 810 c 0
 928 810 948 453 948 429 c 0
 948 138 745 -22 537 -22 c 0
 251 -22 97 238 97 562 c 0
787 343 m 0
 787 565 662 704 506 704 c 0
 376 704 280 585 280 468 c 0
 280 234 426 50 567 50 c 0
 673 50 787 150 787 343 c 0
EndSplineSet
EndChar

StartChar: seven.lining
Encoding: 65597 -1 146
Width: 960
VWidth: 0
Flags: W
HStem: -16 21G<364.5 532.5> 1150 115<268.254 747.985>
VStem: 748 92<946.953 1252.5>
LayerCount: 3
Fore
SplineSet
124 1252 m 0
 127 1265 144 1265 165 1265 c 2
 805 1265 l 2
 834 1265 840 1265 840 1240 c 0
 840 1061 674 428 651 343 c 1
 575 84 l 2
 548 -6 547 -16 518 -16 c 2
 376 -16 l 2
 353 -16 340 -4 340 10 c 0
 340 40 452 131 623 642 c 0
 701 872 748 1072 748 1121 c 0
 748 1146 727 1150 699 1150 c 0
 629 1150 425 1131 313 1113 c 0
 183 1093 141 1065 125 1065 c 0
 109 1065 102 1072 102 1104 c 0
 102 1136 112 1195 124 1252 c 0
EndSplineSet
EndChar

StartChar: eight.lining
Encoding: 65598 -1 147
Width: 1020
VWidth: 0
Flags: W
HStem: -24 76<362.187 653> 1228 76<343.363 617.06>
VStem: 82 123<183.341 451.179> 135 131<909.117 1147.82> 741 118<871.57 1119.35> 778 132<181.408 422.156>
LayerCount: 3
Fore
SplineSet
378 657 m 1xe4
 240 734 135 856 135 988 c 0
 135 1182 292 1304 512 1304 c 0
 688 1304 859 1178 859 1024 c 0xd8
 859 802 604 693 604 693 c 1
 654 666 910 555 910 348 c 0
 910 149 740 -24 496 -24 c 0
 270 -24 82 103 82 307 c 0
 82 527 351 640 378 657 c 1xe4
514 52 m 0
 662 52 778 162 778 300 c 0
 778 450 644 507 432 628 c 1
 432 628 205 501 205 317 c 0xe4
 205 151 372 52 514 52 c 0
528 729 m 1
 528 729 741 818 741 994 c 0
 741 1120 612 1228 486 1228 c 0
 310 1228 266 1122 266 1028 c 0xd8
 266 857 528 729 528 729 c 1
EndSplineSet
EndChar

StartChar: nine.lining
Encoding: 65599 -1 148
Width: 981
VWidth: 0
Flags: W
HStem: 7 88<180.794 509.933> 462 102<371.026 608.949> 1236 64<349.601 540.211>
VStem: 72 152<728.749 1069.26> 732 174<523.493 980.355>
LayerCount: 3
Fore
SplineSet
456 1300 m 0
 726 1300 906 1064 906 700 c 0
 906 348 727 7 372 7 c 0
 183 7 68 92 68 157 c 0
 68 177 78 188 94 188 c 0
 146 188 174 95 338 95 c 0
 726 95 763 618 763 618 c 1
 763 618 637 462 410 462 c 0
 140 462 72 723 72 869 c 0
 72 1108 241 1300 456 1300 c 0
732 766 m 0
 732 973 609 1236 445 1236 c 0
 384 1236 329 1199 289 1146 c 0
 248 1092 224 1028 224 919 c 0
 224 831 267 564 524 564 c 0
 664 564 732 655 732 766 c 0
EndSplineSet
EndChar

StartChar: dollar.lining
Encoding: 65600 -1 149
Width: 1024
VWidth: 0
Flags: W
HStem: -16 62<306.16 472 537 637.179> 1225 57<372.349 474 539 656.716>
VStem: 102 144<899.889 1107.97> 472 65<-360 -16 47 568 759 1225 1279.01 1456> 796 141<185.673 418.96>
LayerCount: 3
Fore
SplineSet
796 299 m 0
 796 471 538 568 537 568 c 1
 537 47 l 1
 537 47 606 53 676 98 c 0
 721 127 796 205 796 299 c 0
474 1225 m 1
 474 1225 246 1207 246 1015 c 0
 246 864 474 759 474 759 c 1
 474 1225 l 1
48 272 m 0
 48 297 61 302 71 302 c 0
 140 302 69 132 368 58 c 0
 408 48 451 46 472 46 c 1
 472 593 l 1
 357 652 102 759 102 952 c 0
 102 1254 474 1282 474 1282 c 1
 474 1456 l 1
 539 1456 l 1
 539 1282 l 1
 760 1258 745 1252 763 1252 c 0
 775 1252 822 1266 825 1266 c 0
 849 1266 846 1238 862 1129 c 0
 863 1118 868 1080 868 1075 c 2
 868 1059 l 2
 868 1048 866 1039 854 1039 c 0
 828 1039 809 1070 787 1101 c 0
 704 1217 539 1225 539 1225 c 1
 539 734 l 1
 760 619 937 566 937 354 c 0
 937 25 537 -15 537 -15 c 1
 537 -360 l 1
 472 -360 l 1
 472 -16 l 1
 472 -16 238 -14 126 36 c 0
 75 58 76 66 64 158 c 0
 57 209 48 262 48 272 c 0
EndSplineSet
EndChar

StartChar: bar
Encoding: 124 124 150
Width: 851
VWidth: 1000
Flags: HW
LayerCount: 3
Fore
SplineSet
392 -425 m 1
 392 1561 l 1
 482 1561 l 1
 482 -425 l 1
 392 -425 l 1
EndSplineSet
EndChar
